<svg viewBox="0 0 88.5332 32" xmlns="http://www.w3.org/2000/svg" xmlns:xlink="http://www.w3.org/1999/xlink" width="88.533203" height="32.000000" fill="none" customFrame="#000000" mask="url(#mask_4)">
	<defs>
		<filter id="pixso_custom_mask_type_outline">
			<feColorMatrix type="matrix" values="0 0 0 0 1 0 0 0 0 1 0 0 0 0 1 0 0 0 1 0 " />
		</filter>
	</defs>
	<mask id="mask_4" width="88.533333" height="32.000004" x="0.000000" y="0.000000" maskUnits="userSpaceOnUse">
		<g filter="url(#pixso_custom_mask_type_outline)">
			<rect id="矩形" width="88.533333" height="32.000004" x="0.000000" y="0.000000" fill="rgb(255,255,255)" />
		</g>
	</mask>
	<g style="mix-blend-mode:multiply">
		<rect id="logo" width="88.533325" height="32.000004" x="0.000000" y="0.000000" />
	</g>
	<path id="" d="M27.2527 28.3266C27.0034 28.4578 26.6905 28.5234 26.3143 28.5234C25.8287 28.5234 25.4408 28.3692 25.1505 28.0608C24.8603 27.7523 24.7152 27.3444 24.7152 26.8369C24.7152 26.2914 24.8786 25.8525 25.2052 25.52C25.5319 25.1875 25.9468 25.0212 26.4499 25.0212C26.7737 25.0212 27.0413 25.0672 27.2527 25.1591L27.2527 25.6162C27.0107 25.4821 26.7445 25.415 26.4543 25.415C26.0766 25.415 25.7689 25.5408 25.5312 25.7923C25.2935 26.0439 25.1746 26.3833 25.1746 26.8106C25.1746 27.216 25.2854 27.538 25.5071 27.7764C25.7288 28.0148 26.019 28.1341 26.3777 28.1341C26.7132 28.1341 27.0048 28.0582 27.2527 27.9066L27.2527 28.3266ZM32.7609 28.4666L32.3234 28.4666L32.3234 26.9397L30.6084 26.9397L30.6084 28.4666L30.1709 28.4666L30.1709 25.0781L30.6084 25.0781L30.6084 26.5503L32.3234 26.5503L32.3234 25.0781L32.7609 25.0781L32.7609 28.4666ZM38.538 28.4666L38.0546 28.4666L37.709 27.5391L36.298 27.5391L35.9721 28.4666L35.4887 28.4666L36.7793 25.0781L37.2474 25.0781L38.538 28.4666ZM37.5734 27.1562L37.0615 25.7475C37.0454 25.7023 37.0279 25.6235 37.009 25.5112L36.998 25.5112C36.982 25.6133 36.9638 25.6921 36.9434 25.7475L36.4359 27.1562L37.5734 27.1562ZM41.1105 27.83C41.2141 27.9204 41.3526 27.9948 41.5262 28.0531C41.6997 28.1114 41.8645 28.1406 42.0205 28.1406C42.496 28.1406 42.7337 27.9714 42.7337 27.6331C42.7337 27.5383 42.7082 27.453 42.6571 27.3772C42.6061 27.3013 42.5361 27.2343 42.4471 27.1759C42.3582 27.1176 42.1912 27.0279 41.9462 26.9069C41.6064 26.7377 41.3825 26.5806 41.2746 26.4355C41.1667 26.2904 41.1127 26.1245 41.1127 25.9378C41.1127 25.6563 41.2258 25.4332 41.4518 25.2684C41.6778 25.1036 41.9629 25.0212 42.3071 25.0212C42.644 25.0212 42.8912 25.0621 43.0487 25.1437L43.0487 25.6206C42.8445 25.4792 42.5864 25.4084 42.2743 25.4084C42.0672 25.4084 41.8984 25.4518 41.7679 25.5386C41.6374 25.6254 41.5721 25.746 41.5721 25.9006C41.5721 26.0377 41.6173 26.1493 41.7077 26.2353C41.7981 26.3213 41.9943 26.4387 42.2962 26.5875C42.6287 26.7464 42.8613 26.9054 42.994 27.0644C43.1267 27.2233 43.193 27.402 43.193 27.6003C43.193 27.8978 43.0851 28.126 42.8693 28.285C42.6535 28.4439 42.3538 28.5234 41.9702 28.5234C41.8361 28.5234 41.6797 28.5048 41.501 28.4676C41.3224 28.4305 41.1922 28.3842 41.1105 28.3287L41.1105 27.83ZM46.5312 27.2L46.5312 28.4666L46.0937 28.4666L46.0937 25.0781L47.0562 25.0781C47.4222 25.0781 47.7062 25.1663 47.9082 25.3428C48.1102 25.5193 48.2112 25.7716 48.2112 26.0997C48.2112 26.4322 48.093 26.7016 47.8568 26.908C47.6205 27.1143 47.3252 27.2117 46.9709 27.2L46.5312 27.2ZM46.5312 25.4631L46.5312 26.815L46.9359 26.815C47.2027 26.815 47.4054 26.7548 47.544 26.6345C47.6825 26.5142 47.7518 26.3418 47.7518 26.1172C47.7518 25.6811 47.4937 25.4631 46.9774 25.4631L46.5312 25.4631ZM53.3627 28.4666L52.8793 28.4666L52.5337 27.5391L51.1227 27.5391L50.7968 28.4666L50.3134 28.4666L51.604 25.0781L52.0721 25.0781L53.3627 28.4666ZM52.398 27.1562L51.8862 25.7475C51.8701 25.7023 51.8526 25.6235 51.8337 25.5112L51.8227 25.5112C51.8067 25.6133 51.7885 25.6921 51.768 25.7475L51.2605 27.1562L52.398 27.1562ZM58.5668 28.4666L58.0505 28.4666L57.4884 27.5259C57.3761 27.3378 57.2733 27.2098 57.1799 27.142C57.0866 27.0742 56.975 27.0403 56.8452 27.0403L56.5302 27.0403L56.5302 28.4666L56.0927 28.4666L56.0927 25.0781L57.1252 25.0781C57.4548 25.0781 57.7129 25.1576 57.8996 25.3166C58.0863 25.4755 58.1796 25.6979 58.1796 25.9837C58.1796 26.4533 57.9288 26.7581 57.4271 26.8981L57.4271 26.9091C57.5204 26.9484 57.601 27.0046 57.6688 27.0775C57.7366 27.1504 57.8245 27.2751 57.9324 27.4516L58.5668 28.4666ZM56.5302 25.4609L56.5302 26.6575L57.0465 26.6575C57.2463 26.6575 57.4085 26.5992 57.5332 26.4825C57.6579 26.3658 57.7202 26.2127 57.7202 26.0231C57.7202 25.8467 57.6634 25.7088 57.5496 25.6097C57.4359 25.5105 57.2703 25.4609 57.053 25.4609L56.5302 25.4609ZM63.668 28.4666L63.0687 28.4666L61.7955 26.9266C61.7518 26.8726 61.7219 26.8303 61.7059 26.7997L61.6949 26.7997L61.6949 28.4666L61.2574 28.4666L61.2574 25.0781L61.6949 25.0781L61.6949 26.6728L61.7059 26.6728C61.7307 26.6334 61.7605 26.5919 61.7955 26.5481L63.0249 25.0781L63.5652 25.0781L62.1434 26.7034L63.668 28.4666Z" fill="rgb(0,0,0)" fill-rule="nonzero" />
	<path id="logo" d="M37.9925 6.33347C38.0838 6.33483 38.1752 6.33619 38.2602 6.29274C38.3707 6.23639 38.4431 6.29382 38.5146 6.35049C38.5344 6.3662 38.5541 6.38185 38.5745 6.395C38.5857 6.402 38.5919 6.44308 38.5863 6.44657C38.4504 6.53077 38.4938 6.73064 38.3365 6.80989C38.2385 6.85942 38.1455 6.88797 38.0395 6.88622C37.6307 6.87923 37.2225 6.89963 36.8145 6.92148C36.7642 6.92415 36.7156 6.91853 36.6665 6.91286C36.614 6.90679 36.561 6.90066 36.5049 6.90458C36.4853 6.90594 36.4658 6.90731 36.4462 6.90868C36.1841 6.92704 35.9208 6.94548 35.6535 6.93138L35.6494 6.93117C35.4187 6.91899 35.1696 6.90584 34.9356 6.97072C34.8965 6.98154 34.8604 6.97218 34.8226 6.96239C34.7881 6.95346 34.7523 6.94417 34.7114 6.94945C34.9195 7.19156 34.9283 7.48495 34.9453 7.77019C34.9617 8.04581 34.9741 8.32638 34.9406 8.59909C34.9251 8.72631 34.9327 8.84985 34.9404 8.97316L34.9404 8.97323C34.9447 9.04302 34.949 9.11272 34.9491 9.18296C34.9494 9.40322 35.0551 9.49412 35.2719 9.51044C35.7547 9.54686 36.2396 9.53142 36.7212 9.61474C36.9495 9.65437 37.1919 9.63426 37.4238 9.68321C37.6005 9.72021 37.788 9.68846 37.957 9.76974C37.9949 9.7881 38.036 9.80208 38.0703 9.82568C38.1067 9.85074 38.1375 9.8857 38.11 9.93552C38.0877 9.97631 38.0471 9.97923 38.0075 9.97252C37.6774 9.91688 37.3422 9.89095 37.0132 9.84142C36.9506 9.83198 36.8856 9.82954 36.8201 9.82708C36.667 9.82133 36.511 9.81548 36.376 9.72021C36.352 9.70302 36.3059 9.71817 36.2789 9.70273C36.234 9.67705 36.2169 9.71072 36.2059 9.7326C36.2045 9.7353 36.2032 9.73782 36.202 9.74003C36.1787 9.7816 36.2167 9.79191 36.247 9.80013L36.251 9.80121C36.2725 9.80703 36.2943 9.81468 36.3161 9.82235C36.3675 9.8404 36.419 9.85851 36.4676 9.85278C36.6121 9.83608 36.7464 9.87173 36.8807 9.90735C36.9573 9.92766 37.0338 9.94796 37.1121 9.95854C37.1393 9.96219 37.1668 9.96639 37.1944 9.97061C37.2771 9.98322 37.3607 9.99598 37.4379 9.99467C37.6094 9.99166 37.7582 10.0482 37.9077 10.105C37.9468 10.1198 37.9859 10.1347 38.0254 10.1485C38.0565 10.1596 38.0941 10.1686 38.1141 10.1913C38.1607 10.2441 38.2147 10.3102 38.2012 10.3772C38.1866 10.4483 38.1173 10.4399 38.0539 10.4148C38.0423 10.4102 38.024 10.4229 38.0056 10.4356C37.9969 10.4416 37.9882 10.4476 37.9802 10.4518C38.1149 10.5978 38.1158 10.6001 37.9306 10.6971C37.8065 10.7621 37.7184 10.885 37.5673 10.9078C37.541 10.9117 37.5149 10.9161 37.489 10.9205C37.3832 10.9384 37.279 10.956 37.1649 10.9424C37.0197 10.9252 36.8673 10.9148 36.7165 10.9582C36.6546 10.976 36.5886 10.9649 36.5227 10.9538C36.4821 10.9469 36.4416 10.9401 36.4022 10.9401C36.0421 10.9398 35.6828 10.9194 35.3233 10.9072C35.1774 10.9022 35.0615 11.114 35.1334 11.2437C35.149 11.2714 35.1725 11.2824 35.2047 11.2854C35.4099 11.3034 35.6144 11.3326 35.8199 11.341C35.943 11.3462 36.0663 11.3455 36.1897 11.3449C36.4017 11.3439 36.6138 11.3428 36.8254 11.371C37.0141 11.3961 37.194 11.4549 37.3777 11.4992C37.5104 11.5313 37.6462 11.5578 37.7716 11.6091C37.8705 11.6493 37.9506 11.7265 38.0609 11.7553C38.1137 11.7692 38.0942 11.7991 38.0745 11.8293C38.0645 11.8446 38.0545 11.86 38.0539 11.8733C38.0533 11.8878 38.0511 11.9019 38.0492 11.9152C38.0412 11.9684 38.035 12.0097 38.1308 12.0202C38.1857 12.0263 38.2455 12.0618 38.2388 12.1483C38.2318 12.2381 38.1716 12.234 38.1108 12.2471C38.0422 12.262 37.9896 12.2803 38.0234 12.3817C38.0686 12.5182 37.9509 12.5949 37.8668 12.6496C37.8576 12.6557 37.8487 12.6614 37.8405 12.667C37.5758 12.847 37.2627 12.8269 36.9595 12.7919C36.7514 12.7678 36.5451 12.7197 36.3352 12.7133C36.2509 12.7107 36.1667 12.7029 36.0825 12.6951C35.9297 12.681 35.777 12.6669 35.6235 12.6839C35.4997 12.6975 35.3766 12.6928 35.2534 12.688C35.2008 12.6859 35.1482 12.6839 35.0956 12.6833C34.9403 12.6815 34.8822 12.7439 34.9259 12.8869C34.9479 12.9595 34.9485 13.0282 34.9491 13.099C34.9512 13.3636 34.95 13.3636 35.1956 13.4673C35.2711 13.2599 35.5807 13.1521 35.772 13.266C35.8202 13.2945 35.8032 13.3257 35.7797 13.3592C35.7679 13.3761 35.7504 13.3776 35.7334 13.3791C35.7217 13.3801 35.7102 13.3811 35.701 13.3872C35.6982 13.3891 35.6953 13.391 35.6923 13.393C35.654 13.4184 35.6071 13.4496 35.6294 13.4991C35.6537 13.5531 35.7012 13.5307 35.7458 13.5098L35.7512 13.5072C35.839 13.4664 35.9373 13.4524 35.9666 13.3286C35.9784 13.2785 36.0696 13.2724 36.1307 13.2645C36.1648 13.2602 36.1978 13.2511 36.2306 13.242C36.324 13.2161 36.416 13.1907 36.5289 13.2773C36.6065 13.3369 36.7629 13.3106 36.8905 13.2891C36.9034 13.287 36.9159 13.2848 36.9281 13.2829C37.0053 13.2701 37.0907 13.2814 37.1646 13.238C37.1802 13.229 37.2227 13.236 37.231 13.2491C37.2485 13.2771 37.225 13.2956 37.2039 13.3123C37.2013 13.3144 37.1988 13.3164 37.1963 13.3184C37.0751 13.4172 36.9175 13.3936 36.7811 13.4408C36.7731 13.4437 36.7661 13.4492 36.7579 13.4685C36.9135 13.4306 37.0642 13.456 37.2162 13.4815C37.3276 13.5003 37.4397 13.5191 37.555 13.5133C37.7179 13.5052 37.9151 13.5195 38.0788 13.6124C38.0921 13.6199 38.1069 13.6262 38.1216 13.6324C38.1745 13.6549 38.2267 13.6771 38.2045 13.7537C38.1795 13.8397 38.1367 13.9218 38.0269 13.9364C37.9905 13.941 37.9541 13.9571 37.9218 13.9751C37.8986 13.9879 37.8796 14.0063 37.8931 14.0451C37.9656 14.2545 37.9224 14.3154 37.7158 14.404C37.3378 14.5657 36.9422 14.61 36.538 14.6033C36.4628 14.602 36.3876 14.6025 36.3125 14.603C36.1308 14.6043 35.9492 14.6055 35.7665 14.5814C35.617 14.5618 35.4661 14.5768 35.3146 14.5918C35.2186 14.6014 35.1223 14.6109 35.026 14.6117C34.8934 14.6129 34.8863 14.7644 34.8658 14.8649C34.8464 14.9605 34.8344 15.0799 35.0058 15.0429C35.0234 15.0392 35.0477 15.0421 35.0621 15.052C35.3013 15.2169 35.6074 15.1921 35.856 15.3314C35.9701 15.3952 36.0937 15.4433 36.2055 15.5103C36.2581 15.542 36.303 15.5956 36.3006 15.6693C36.3004 15.6745 36.3 15.6799 36.2997 15.6854C36.298 15.7104 36.2963 15.737 36.3074 15.7547C36.3159 15.7685 36.3275 15.7833 36.3393 15.7984C36.3747 15.8437 36.4121 15.8916 36.3778 15.9249C36.2707 16.0289 36.2363 16.19 36.099 16.264C35.925 16.3578 35.7362 16.4152 35.5458 16.4665C35.4143 16.5019 35.2804 16.5004 35.1464 16.4989C35.1063 16.4985 35.0663 16.498 35.0263 16.4985C34.8637 16.5009 34.8279 16.532 34.8338 16.6914C34.8475 17.0642 34.7998 17.4318 34.7521 17.7994C34.7395 17.8963 34.7269 17.9932 34.7155 18.0902C34.6994 18.2262 34.7147 18.3619 34.73 18.4971C34.7462 18.6409 34.7624 18.7842 34.7407 18.927C34.675 19.3593 34.7255 19.8036 34.5978 20.2284C34.5682 20.3266 34.5426 20.4266 34.5092 20.5236C34.4675 20.6448 34.4502 20.761 34.508 20.8851C34.5796 21.0387 34.5078 21.1705 34.4387 21.2974C34.4276 21.3178 34.4165 21.3381 34.4062 21.3583C34.3689 21.4311 34.2876 21.4792 34.2453 21.5582C34.206 21.6316 34.0023 21.6048 33.9574 21.5066C33.9069 21.3962 33.8659 21.4321 33.8152 21.4767C33.81 21.4813 33.8047 21.486 33.7992 21.4906C33.7664 21.5185 33.73 21.543 33.6977 21.5719C33.6563 21.6092 33.6041 21.6094 33.5882 21.5637C33.553 21.4623 33.4738 21.4352 33.3881 21.3921C33.243 21.3195 33.2612 21.182 33.2775 21.0583C33.2799 21.0396 33.2824 21.0212 33.2842 21.0034C33.2887 20.9597 33.2997 20.9166 33.3107 20.8733C33.3277 20.8069 33.3447 20.74 33.3391 20.669C33.337 20.6439 33.352 20.6075 33.3716 20.5929C33.4767 20.5148 33.433 20.4583 33.3493 20.4053C33.2739 20.3572 33.2921 20.2797 33.3232 20.2322C33.3922 20.1265 33.3765 20.0179 33.361 19.9113C33.3583 19.8927 33.3557 19.8742 33.3534 19.8558C33.3162 19.5426 33.2956 19.2329 33.3285 18.9153C33.3505 18.7023 33.379 18.4888 33.3925 18.2749C33.3952 18.2315 33.4055 18.1875 33.4156 18.1441C33.4311 18.0773 33.4462 18.0122 33.4333 17.9536C33.4142 17.8677 33.4336 17.7829 33.4529 17.6986C33.4794 17.5826 33.5058 17.4674 33.4315 17.3516C33.4184 17.3313 33.4208 17.3009 33.4232 17.2711C33.4241 17.2595 33.425 17.248 33.425 17.2371C33.425 17.1462 33.4245 17.0552 33.424 16.9642C33.4227 16.7396 33.4215 16.5149 33.4265 16.2905C33.4321 16.0413 33.4067 15.7947 33.3814 15.5482C33.3759 15.4945 33.3704 15.4408 33.3652 15.387C33.3495 15.2263 33.3816 15.0719 33.4135 14.9181C33.4192 14.8906 33.4249 14.8632 33.4303 14.8358C33.4469 14.7531 33.4038 14.7395 33.3542 14.7238L33.3499 14.7224C33.1988 14.6744 33.0415 14.6962 32.8962 14.7294C32.7879 14.7542 32.6752 14.7635 32.571 14.7717C32.4533 14.7809 32.3356 14.7913 32.2179 14.8018C31.8056 14.8382 31.3927 14.8747 30.9788 14.862C30.6281 14.8515 30.3276 14.7064 30.1269 14.4023C30.052 14.2889 30.1539 14.0885 30.3141 14.0555C30.3186 14.0546 30.323 14.0537 30.3274 14.0528C30.4284 14.0323 30.5054 14.0166 30.4635 13.879C30.4465 13.8228 30.4858 13.7907 30.5468 13.789C30.8347 13.7802 31.1024 13.6654 31.383 13.627C31.6436 13.5911 31.9016 13.5326 32.1669 13.525C32.4633 13.5165 32.7571 13.4772 33.0429 13.3948C33.1141 13.3741 33.1861 13.3775 33.2576 13.3808C33.278 13.3818 33.2985 13.3827 33.3188 13.3831C33.4359 13.3851 33.477 13.3388 33.4873 13.2217C33.5 13.0783 33.476 12.9396 33.452 12.801C33.4355 12.7061 33.4191 12.6112 33.4145 12.5149C33.4071 12.5187 33.396 12.5204 33.3936 12.5259C33.2739 12.7928 33.0218 12.759 32.7929 12.8033C32.4351 12.8727 32.0715 12.9143 31.7199 13.0169C31.7005 13.0225 31.681 13.0286 31.6616 13.0347C31.5478 13.0703 31.4327 13.1063 31.3084 13.062C31.2738 13.0498 31.2525 13.0732 31.2317 13.096C31.2253 13.1029 31.2191 13.1098 31.2125 13.1156C31.1315 13.1864 31.0484 13.1882 30.9486 13.1465C30.673 13.0311 30.467 12.8351 30.2856 12.6078C30.2061 12.5079 30.2569 12.3546 30.3836 12.3033C30.4318 12.2841 30.4831 12.2698 30.5263 12.2427C30.5782 12.2101 30.629 12.1731 30.5333 12.1198C30.4582 12.0778 30.4878 12.0356 30.5548 12.0129C30.9507 11.8777 31.3381 11.681 31.7454 11.6239C31.9512 11.595 32.1529 11.5451 32.3543 11.4952C32.6665 11.4179 32.9781 11.3408 33.3038 11.3422C33.3062 11.3422 33.3089 11.3425 33.3118 11.3427C33.3204 11.3434 33.3299 11.3442 33.3323 11.3407C33.3772 11.2756 33.3738 11.2043 33.3704 11.1327C33.3691 11.1066 33.3679 11.0805 33.369 11.0546C33.3716 10.9926 33.3628 10.9532 33.2836 10.9625C33.0456 10.9905 32.804 10.9987 32.5692 11.0427C32.4668 11.0619 32.3647 11.0844 32.2626 11.1069C31.9642 11.1726 31.6658 11.2384 31.3574 11.2227C30.9615 11.2029 30.6299 11.0604 30.4465 10.6758C30.3925 10.5622 30.3188 10.4556 30.2413 10.3554C30.138 10.2216 30.1527 10.1418 30.2786 10.0305C30.6184 9.7307 31.0311 9.66835 31.4599 9.65379C31.6686 9.64674 31.8765 9.62705 32.0844 9.60735C32.3923 9.57819 32.7003 9.54902 33.0112 9.56084C33.1002 9.56421 33.1958 9.51735 33.2808 9.47564L33.2906 9.47082C33.3596 9.43702 33.3878 9.37321 33.401 9.28522C33.4475 8.97298 33.4496 8.6596 33.4517 8.34625C33.4527 8.1833 33.4538 8.02036 33.4611 7.8576C33.4697 7.66618 33.4711 7.47417 33.482 7.28276C33.4917 7.11028 33.4203 7.05871 33.2498 7.09046C32.9029 7.15543 32.5516 7.19273 32.2006 7.17117C31.9928 7.15864 31.7789 7.15922 31.5761 7.09046C31.3296 7.00684 31.1549 6.83262 31.0155 6.62809C30.9328 6.50659 30.9876 6.41889 31.1226 6.35451C31.4446 6.20067 31.7985 6.15289 32.1334 6.04247C32.416 5.94923 32.6919 5.84114 32.9434 5.68206C33.0051 5.64302 33.0476 5.57135 33.0916 5.50929C33.1172 5.47335 33.0911 5.45406 33.0667 5.43617C33.0587 5.43027 33.0509 5.42453 33.0453 5.41839C32.9126 5.27504 32.9088 5.24416 33.0776 5.15384C33.2266 5.0743 33.3537 4.97145 33.4861 4.86977C33.6123 4.77265 33.7683 4.79793 33.9174 4.8221C33.9486 4.82715 33.9794 4.83215 34.0097 4.83598C34.0389 4.83969 34.068 4.84737 34.0972 4.8551C34.1461 4.86802 34.1956 4.8811 34.2477 4.87618C34.3099 4.87036 34.3583 4.89832 34.4059 4.93154C34.626 5.08537 34.8261 5.25815 34.9215 5.51832C35.0087 5.75636 35.0063 5.74092 35.2831 5.75898C35.3914 5.76597 35.5088 5.78986 35.6174 5.81521C35.8084 5.85979 36.001 5.83036 36.1926 5.86037C36.4773 5.90495 36.769 5.90553 37.0578 5.92563C37.0629 5.92598 37.0683 5.92553 37.0739 5.92507C37.0919 5.92359 37.1108 5.92203 37.1191 5.9472C37.1914 6.16624 37.3501 6.14277 37.5116 6.11888C37.5318 6.11588 37.5521 6.11288 37.5723 6.11035C37.7008 6.09433 37.8303 6.08238 37.9582 6.12696C37.9879 6.13716 38.0243 6.15027 38.0246 6.17154C38.0248 6.19368 37.994 6.21815 37.9588 6.2164C37.9559 6.21627 37.9527 6.21607 37.9495 6.21586C37.9318 6.2147 37.9112 6.21336 37.9028 6.22223C37.8946 6.23079 37.8816 6.23455 37.869 6.23824C37.8476 6.24448 37.8269 6.25049 37.8311 6.27905C37.8376 6.32333 37.8766 6.33411 37.9195 6.33324C37.9437 6.33275 37.9681 6.33311 37.9925 6.33347ZM59.2834 9.32567C59.267 9.2689 59.2506 9.21207 59.2362 9.15458C59.1925 8.98006 59.169 8.80059 59.159 8.61762C59.1524 8.49112 59.1444 8.36465 59.1363 8.23816L59.1363 8.23809C59.1104 7.83088 59.0845 7.4236 59.1065 7.01547C59.1206 6.75354 59.1253 6.48695 59.3066 6.25882C59.4534 6.07381 59.6333 5.93513 59.8607 5.93076C60.2308 5.92348 60.5689 5.79849 60.9152 5.70409C61.0799 5.65922 61.2463 5.65631 61.4106 5.63737C61.8688 5.58463 62.3295 5.55346 62.79 5.52112C62.8203 5.51892 62.8524 5.52623 62.8853 5.53373C62.9091 5.53916 62.9333 5.54468 62.9576 5.54676C63.0489 5.55438 63.1357 5.53431 63.223 5.51414C63.3159 5.49267 63.4093 5.47109 63.5091 5.48266C63.9446 5.53336 64.3845 5.53685 64.8215 5.58492C64.9879 5.60328 65.1678 5.59337 65.3378 5.57036C65.7143 5.51937 65.9864 5.66534 66.2079 5.95786C66.3471 6.14141 66.3594 6.35818 66.3732 6.56154C66.4043 7.02392 66.3873 7.48862 66.2335 7.93439C66.104 8.31024 65.9913 8.69104 65.8966 9.07591C65.8508 9.2618 65.8681 9.45963 65.7985 9.64667C65.7278 9.83751 65.6198 9.97678 65.4405 10.0831C65.2996 10.1667 65.1587 10.2617 65.0155 10.3334C64.8564 10.4129 64.7235 10.5228 64.5741 10.6111C64.477 10.6684 64.388 10.6524 64.2862 10.6169C64.1783 10.5793 64.0649 10.5766 63.9511 10.574C63.8869 10.5725 63.8226 10.571 63.7591 10.5633C63.227 10.498 62.6891 10.4651 62.1537 10.5038C62.0942 10.5081 62.0338 10.5088 61.9727 10.5094C61.789 10.5114 61.5992 10.5134 61.4089 10.6148L61.6689 10.6148C61.5826 10.6981 61.4805 10.6957 61.403 10.6938C61.3978 10.6937 61.3927 10.6936 61.3877 10.6935C61.0893 10.6886 60.8193 10.7853 60.5501 10.887C60.3714 10.9546 60.178 10.947 59.9996 11.014C59.9485 11.0332 59.8901 10.9834 59.856 10.9368C59.6747 10.6894 59.5097 10.4345 59.4199 10.1359C59.392 10.0432 59.3727 9.94298 59.3759 9.85965C59.3832 9.67119 59.3334 9.49875 59.2834 9.32567ZM12.3658 9.75982C12.5538 9.76459 12.7413 9.76935 12.9167 9.8339C13.1852 9.93267 13.4499 10.0626 13.5864 10.3449C13.6041 10.3817 13.6191 10.4177 13.6191 10.4607L13.619 10.4667C13.6093 10.7479 13.594 11.0247 13.5474 11.3067C13.4766 11.7338 13.3167 12.1268 13.1928 12.5336C13.0816 12.8992 12.9695 13.2637 12.8227 13.62C12.7329 13.8383 12.6977 14.0882 12.6217 14.3202C12.5011 14.689 12.2771 14.9806 11.9663 15.2105C11.8751 15.2781 11.7697 15.3011 11.6594 15.3032C11.65 15.3034 11.6406 15.3036 11.6313 15.3037C11.524 15.306 11.4164 15.3082 11.3095 15.302C11.1861 15.2948 11.0627 15.3061 10.9398 15.3174C10.7957 15.3307 10.6522 15.3439 10.5101 15.3271C10.3551 15.3087 10.1996 15.3096 10.0442 15.3105C9.85041 15.3116 9.65687 15.3128 9.46497 15.2764C9.43357 15.2705 9.39072 15.2714 9.36636 15.2883C9.14628 15.4401 8.90825 15.4051 8.67476 15.3708C8.62988 15.3642 8.58517 15.3576 8.54078 15.3524C8.49173 15.3465 8.4472 15.3522 8.4032 15.3578C8.37112 15.3619 8.33933 15.366 8.30629 15.3655C8.1574 15.3636 8.00824 15.3664 7.85927 15.3693L7.85915 15.3693L7.85913 15.3693L7.8591 15.3693C7.74119 15.3716 7.6234 15.3738 7.50595 15.3737C7.45411 15.3737 7.40225 15.372 7.35043 15.3702C7.20688 15.3655 7.06367 15.3607 6.92221 15.3926C6.61405 15.462 6.29532 15.441 5.98569 15.5234C5.97872 15.5253 5.97172 15.5272 5.96471 15.529C5.79555 15.5742 5.61533 15.6223 5.43159 15.5954C5.29761 15.5758 5.17207 15.6141 5.04792 15.6519C4.99886 15.6669 4.95002 15.6818 4.90097 15.693C4.70786 15.7373 4.51915 15.7405 4.3275 15.7393C4.08508 15.7382 3.85352 15.7711 3.61844 15.8401C3.40683 15.9022 3.18232 15.934 2.96279 15.9675C2.75909 15.9986 2.61147 15.8705 2.46756 15.7456C2.4485 15.729 2.4295 15.7126 2.41045 15.6965C2.14983 15.4768 2.07793 15.1907 2.04535 14.865C2.0289 14.7003 2.02032 14.5395 2.02032 14.3763C2.02032 14.3327 2.02093 14.289 2.02217 14.245C2.02365 14.1932 2.02426 14.1413 2.02426 14.0895C2.02426 13.9717 2.02113 13.8537 2.01799 13.7358C2.01485 13.6178 2.01172 13.4999 2.01172 13.3822C2.01172 13.1675 2.02216 12.9534 2.06208 12.7413C2.12782 12.3923 2.10405 12.0397 2.1557 11.6898C2.18564 11.4876 2.17243 11.2738 2.2235 11.0654C2.30597 10.7286 2.54222 10.5235 2.83248 10.395C3.15737 10.2514 3.51542 10.2025 3.86761 10.1462C4.00428 10.1243 4.13985 10.1294 4.27496 10.1345L4.27498 10.1345L4.275 10.1345C4.34965 10.1373 4.42414 10.1401 4.4986 10.1384C4.78416 10.1317 5.07295 10.1066 5.3594 10.0716C5.55867 10.0472 5.75942 10.0236 5.95957 10.0067C6.23164 9.98365 6.50105 9.94199 6.77224 9.91344C6.86586 9.90382 6.98032 9.70745 6.9856 9.5644C6.98583 9.55825 6.98591 9.55207 6.98591 9.54588L6.98578 9.52864L6.98565 9.51121C6.98565 9.46653 6.98954 9.42113 7.02728 9.37618C6.83232 9.33275 6.65122 9.3788 6.48297 9.42159C6.47291 9.42415 6.46289 9.42669 6.45292 9.42921C6.24073 9.48253 6.01915 9.47612 5.81224 9.55537C5.733 9.58596 5.64877 9.60868 5.57922 9.65472C5.30334 9.83769 4.97845 9.85021 4.67 9.90819C4.52328 9.93582 4.38136 9.86691 4.24311 9.79978C4.22096 9.78902 4.1989 9.77831 4.17694 9.76805C4.04986 9.70862 3.93481 9.64102 3.85293 9.52798C3.81214 9.47174 3.79258 9.41466 3.79258 9.36002C3.79258 9.26803 3.84803 9.183 3.95096 9.12067C3.96282 9.11346 3.97765 9.10703 3.99295 9.1004C4.03394 9.08262 4.07833 9.06337 4.07833 9.0238C4.07833 9.00288 4.06592 8.97627 4.03401 8.94119C4.03345 8.94061 4.03317 8.93957 4.03317 8.93816C4.03317 8.92562 4.05501 8.88342 4.09036 8.86195C4.32985 8.71598 4.59809 8.63411 4.85108 8.51873C4.99195 8.45434 5.13693 8.40103 5.29013 8.36665C5.4134 8.33926 5.45947 8.22738 5.5079 8.11433C5.38734 8.09024 5.27322 8.11678 5.1602 8.14306C5.10787 8.15523 5.05578 8.16735 5.0034 8.17435C4.87133 8.19213 4.74806 8.20116 4.61952 8.16853C4.48657 8.13473 4.34922 8.13269 4.21568 8.08607C4.07892 8.03829 3.94743 7.95613 3.91574 7.84542C3.90332 7.80174 3.89665 7.75747 3.89665 7.71343C3.89665 7.59411 3.94555 7.47643 4.06131 7.37663C4.38796 7.09489 4.7824 6.9734 5.18184 6.8586C5.39461 6.79771 5.58831 6.6835 5.81107 6.64941C5.88327 6.63834 5.90645 6.55676 5.9267 6.49587C5.98687 6.31581 6.10426 6.16547 6.22635 6.03524C6.39511 5.85518 6.62344 5.90326 6.81802 6.01106C6.99822 6.11099 7.24416 6.14479 7.28936 6.40992C7.2967 6.45187 7.35833 6.47198 7.39501 6.47343C7.40272 6.47376 7.41043 6.47409 7.41815 6.47443C7.56151 6.48058 7.7067 6.48682 7.84845 6.47023C8.05242 6.44634 8.25639 6.43876 8.45919 6.4545C8.85854 6.48543 9.25814 6.4806 9.65753 6.47578C9.69078 6.47538 9.72403 6.47498 9.75728 6.4746C9.87233 6.47343 9.95714 6.38428 10.005 6.28493C10.1329 6.0198 10.383 5.92977 10.633 5.83945C10.7 5.81527 10.7789 5.84499 10.8232 5.88111C11.0061 6.03029 11.2417 6.141 11.2602 6.42478C11.2667 6.52442 11.3321 6.5521 11.4348 6.57046C11.8114 6.63718 12.1959 6.63921 12.57 6.71671C12.6362 6.73053 12.7045 6.7486 12.7045 6.81729C12.7045 6.83843 12.698 6.86438 12.683 6.89648C12.6609 6.94398 12.6483 6.99469 12.6483 7.04677C12.6483 7.10106 12.662 7.15684 12.693 7.21201C12.708 7.23868 12.7139 7.2669 12.7139 7.29528C12.7139 7.36314 12.6801 7.43195 12.6551 7.48276C12.6532 7.48663 12.6514 7.49039 12.6496 7.49404C12.6035 7.58873 12.5342 7.66944 12.5175 7.78336C12.5081 7.84746 12.4667 7.91155 12.3837 7.92204C12.329 7.92898 12.2714 7.9426 12.2139 7.95622C12.0878 7.98607 11.9619 8.01589 11.8666 7.97507C11.6599 7.88679 11.4545 7.9334 11.2558 7.88154C11.2299 7.87474 11.202 7.87548 11.174 7.87622C11.1576 7.87665 11.1412 7.87708 11.1252 7.87601C11.0849 7.87319 11.0632 7.8843 11.0632 7.92732L11.0633 7.93166C11.0645 7.97157 11.0736 7.98701 11.1188 7.99517C11.2444 8.01819 11.3647 8.05985 11.4839 8.10763C11.6587 8.17767 11.7259 8.2788 11.7259 8.41505C11.7259 8.48057 11.7103 8.55422 11.6837 8.63644C11.6238 8.82232 11.5293 8.97878 11.4586 9.15009C11.3829 9.33423 11.237 9.42542 11.0536 9.42193C10.9443 9.41974 10.8351 9.41217 10.726 9.4046C10.5444 9.39202 10.3628 9.37943 10.1808 9.39162C9.90813 9.40998 9.63548 9.42834 9.36518 9.47495C9.24319 9.49607 9.12171 9.48056 8.99992 9.46501C8.89492 9.4516 8.78969 9.43817 8.68371 9.44815C8.64921 9.45141 8.61434 9.45037 8.57943 9.44933C8.54573 9.44833 8.512 9.44732 8.47856 9.45019C8.39609 9.4573 8.3573 9.47787 8.3573 9.51849C8.3573 9.54277 8.37117 9.57421 8.39785 9.61422C8.47416 9.72872 8.57952 9.81671 8.67285 9.91577C8.69075 9.93471 8.70954 9.94724 8.73595 9.94432C9.04822 9.90878 9.36518 9.91635 9.67364 9.84759C9.80042 9.81933 9.92633 9.79457 10.0566 9.77971C9.91015 9.75876 9.7641 9.77155 9.60697 9.7853C9.54121 9.79106 9.47352 9.79699 9.40304 9.80068C9.85912 9.67191 10.2964 9.65035 10.754 9.60839C10.6988 9.67355 10.6347 9.67486 10.5727 9.67612C10.5512 9.67656 10.53 9.67699 10.5095 9.68007C10.4827 9.68412 10.4548 9.68251 10.4268 9.6809C10.3644 9.67729 10.3016 9.67367 10.2497 9.7328C10.3651 9.70761 10.4811 9.70914 10.5969 9.71066C10.6673 9.71159 10.7376 9.71252 10.8077 9.70745C10.8156 9.70692 10.8239 9.70243 10.832 9.6981C10.8415 9.69296 10.8507 9.68805 10.8581 9.69026C11.0973 9.75976 11.3399 9.74967 11.5822 9.73959C11.7473 9.73273 11.9122 9.72587 12.0758 9.74416C12.1715 9.75488 12.2687 9.75735 12.3658 9.75982ZM86.4086 15.2742C86.4132 15.2744 86.418 15.2747 86.4225 15.2754C86.549 15.2955 86.5446 15.3511 86.4612 15.4231L86.4606 15.4237C86.4417 15.4407 86.4237 15.4569 86.4272 15.4831C86.4429 15.6073 86.398 15.716 86.3531 15.8245C86.3336 15.8718 86.314 15.9191 86.2995 15.9676C86.2869 16.01 86.3071 16.0179 86.3317 16.0274C86.3357 16.029 86.3398 16.0305 86.3438 16.0323C86.3706 16.044 86.4002 16.062 86.3932 16.0944C86.3887 16.1139 86.3638 16.1425 86.3471 16.1433C86.2971 16.1457 86.276 16.1879 86.2541 16.2315C86.2224 16.2944 86.1893 16.3605 86.0656 16.3144C85.8795 16.2447 85.6624 16.2459 85.4581 16.2377C85.1153 16.224 84.7755 16.1652 84.4347 16.157C84.2798 16.1533 84.1231 16.1549 83.9667 16.1566C83.8568 16.1577 83.7471 16.1589 83.6382 16.1582C83.3606 16.1564 83.0788 16.1037 82.798 16.0833C82.5362 16.0644 82.28 16.0049 82.0149 15.9965C81.7173 15.9869 81.4309 16.0213 81.1436 16.0888C80.8147 16.1663 80.4802 16.1707 80.1454 16.1751C80.0356 16.1766 79.9258 16.1781 79.8161 16.1821C79.4786 16.1943 79.1411 16.1946 78.8039 16.2086C78.339 16.2278 77.8738 16.2508 77.4113 16.2975C76.9755 16.3415 76.5285 16.3109 76.1065 16.4673C75.9964 16.5081 75.8735 16.5215 75.7722 16.5766C75.6428 16.6468 75.5503 16.5914 75.4626 16.5201C75.3167 16.4012 75.2025 16.2491 75.0523 16.1317C75.0103 16.0988 74.9296 16.0076 75.0376 15.9301C75.0894 15.8928 75.0892 15.8308 75.0891 15.7768C75.0891 15.7605 75.0891 15.7452 75.0904 15.7314C75.1089 15.542 75.123 15.3616 75.2383 15.1956C75.2675 15.1536 75.2354 15.1251 75.1994 15.0931C75.1735 15.0701 75.1456 15.0452 75.1371 15.0123C75.2643 15.0272 75.3732 14.9805 75.482 14.9339C75.5648 14.8984 75.6475 14.863 75.7382 14.8547C75.9137 14.8387 76.0818 14.7856 76.2606 14.774C76.6873 14.7457 77.1161 14.7381 77.5402 14.6665C77.6863 14.6417 77.8395 14.6414 77.9874 14.6391C78.17 14.6363 78.3519 14.6207 78.5337 14.605C78.7914 14.5829 79.0491 14.5607 79.3084 14.5753C79.3824 14.5793 79.4152 14.549 79.4135 14.4736C79.4117 14.3929 79.3736 14.3297 79.2946 14.3451C78.8227 14.4378 78.3387 14.3742 77.8645 14.4748C77.5804 14.5351 77.2707 14.5651 76.9943 14.3973C76.9579 14.3754 76.9218 14.3518 76.8883 14.3256C76.8818 14.3204 76.8754 14.3149 76.8691 14.3095C76.8307 14.2762 76.7972 14.2472 76.7639 14.3381C76.7416 14.399 76.6794 14.3769 76.6662 14.3334C76.6579 14.3058 76.6476 14.278 76.6373 14.2502C76.5925 14.1288 76.547 14.0057 76.6618 13.883C76.665 13.8795 76.6717 13.8763 76.6717 13.8728C76.6788 13.5637 76.9312 13.4308 77.1469 13.3356C77.1769 13.3223 77.2073 13.3078 77.2381 13.293C77.4033 13.2139 77.5822 13.1282 77.7931 13.2004C78.0629 13.2927 78.3449 13.2566 78.6178 13.1954C78.6898 13.1793 78.7624 13.179 78.835 13.1786C78.921 13.1782 79.007 13.1778 79.0918 13.1511C79.1813 13.1229 79.282 13.1316 79.3765 13.117C79.4719 13.1025 79.4977 13.0194 79.4505 12.9087C79.3744 12.7307 79.2045 12.6928 79.0454 12.6555C78.6369 12.5597 78.261 12.6689 77.9132 12.8773C77.4815 13.136 76.8916 12.8481 76.8616 12.3496C76.8449 12.074 76.8452 11.7996 77.0327 11.5612C77.2672 11.2629 77.5628 11.0345 77.8736 10.8261C77.9751 10.758 78.0312 10.6589 78.1042 10.5756C78.1741 10.4962 78.0862 10.4313 78.022 10.3841C78.0154 10.3792 78.0089 10.3744 78.003 10.3699C77.8565 10.258 77.7297 10.1304 77.6165 9.98588C77.5105 9.8504 77.4627 9.69744 77.4474 9.53224C77.4374 9.42357 77.4192 9.35364 77.2754 9.35714L77.2397 9.35801C76.8644 9.36702 76.8508 9.36734 76.6899 9.72687C76.3873 10.404 76.0507 11.0639 75.7009 11.7174C75.6337 11.8433 75.6187 11.9857 75.5615 12.113C75.4414 12.3799 75.2334 12.5877 75.0625 12.8205C74.9666 12.9513 74.8407 13.0564 74.7553 13.1978C74.6869 13.3105 74.6012 13.4113 74.4838 13.4885C74.4002 13.5436 74.3329 13.6234 74.3007 13.7359C74.2511 13.9084 74.1026 14.0249 74.0001 14.1677C73.856 14.3687 73.6562 14.4931 73.4405 14.5968C73.4029 14.6149 73.3976 14.6434 73.3797 14.6676C73.3731 14.6764 73.3679 14.6878 73.3627 14.6991C73.3488 14.7293 73.3348 14.7597 73.2949 14.7434C73.2321 14.7175 73.2406 14.6624 73.2773 14.6111C73.2815 14.6051 73.2808 14.5956 73.2796 14.5808C73.279 14.572 73.2782 14.5612 73.2782 14.5482C73.1223 14.7186 72.9365 14.8314 72.7393 14.9196C72.6498 14.9599 72.5852 15.0283 72.5007 15.0703C72.4965 15.0724 72.4923 15.0745 72.4881 15.0767C72.4519 15.0953 72.416 15.1137 72.3792 15.0883C72.354 15.0712 72.3323 15.0385 72.324 15.0088C72.3098 14.9572 72.2742 14.9133 72.2386 14.8694C72.1746 14.7904 72.1105 14.7113 72.17 14.5866C72.2011 14.5217 72.211 14.4445 72.2873 14.4121C72.3273 14.3952 72.3528 14.3763 72.3364 14.3285C72.3351 14.3248 72.3318 14.3205 72.3285 14.316C72.3198 14.3043 72.3103 14.2916 72.3328 14.2865C72.5706 14.2332 72.6237 14.001 72.7569 13.8495C72.8784 13.7111 73.004 13.5777 73.137 13.4515C73.3715 13.2295 73.5347 12.9536 73.7131 12.6917C73.9285 12.375 74.1375 12.0533 74.3843 11.7602C74.541 11.5743 74.6173 11.3532 74.7157 11.1411C74.9123 10.7166 75.0784 10.2793 75.2477 9.8437C75.3367 9.6147 75.4259 9.3854 75.5075 9.15378C75.5386 9.06579 75.5577 8.97197 75.5668 8.87932C75.5855 8.68761 75.7009 8.56175 75.8999 8.54835C75.9926 8.54193 76.0522 8.52824 76.0724 8.41898C76.0847 8.35367 76.1505 8.34926 76.2108 8.34522C76.2229 8.34441 76.2347 8.34362 76.2459 8.34236C76.3338 8.3325 76.4205 8.34398 76.5073 8.35546C76.5822 8.36536 76.6571 8.37527 76.7328 8.37149C77.2138 8.3476 77.6928 8.30244 78.172 8.25758C78.2479 8.25043 78.324 8.24958 78.4003 8.24872C78.5077 8.24751 78.6154 8.2463 78.7226 8.22757C78.9068 8.19548 79.093 8.19864 79.2788 8.20179C79.4289 8.20433 79.5787 8.20686 79.7269 8.19086C79.8716 8.17517 80.0172 8.17404 80.1627 8.1729C80.393 8.17111 80.6231 8.16931 80.8492 8.10986C80.9707 8.07781 81.0147 7.99128 80.9584 7.88202C80.8301 7.63291 80.598 7.50938 80.303 7.55949C80.2265 7.57245 80.1598 7.55296 80.0933 7.53355C80.0522 7.52153 80.0111 7.50954 79.9679 7.5053C79.9 7.49856 79.8327 7.49854 79.7657 7.49852C79.711 7.4985 79.6565 7.49848 79.6019 7.49481L79.5444 7.49096C79.2533 7.47138 78.962 7.45179 78.6712 7.47092C78.5956 7.47592 78.5195 7.4783 78.4434 7.48067C78.2092 7.48798 77.9744 7.49531 77.7491 7.57931C77.7296 7.58657 77.7066 7.58568 77.684 7.58482C77.6766 7.58454 77.6694 7.58426 77.6622 7.58426C77.2987 7.58315 76.9384 7.62088 76.578 7.65862C76.465 7.67046 76.352 7.68229 76.2388 7.69293C76.2277 7.69398 76.2163 7.69514 76.2048 7.69631C76.0785 7.70918 75.9332 7.72398 75.8197 7.61718C75.7528 7.55454 75.7182 7.48141 75.7156 7.39255C75.7151 7.37708 75.7149 7.36169 75.7148 7.34636C75.7139 7.26291 75.7131 7.18134 75.6645 7.10061C75.6249 7.03448 75.678 6.97766 75.7467 6.94241C75.8385 6.8955 75.9166 6.83723 75.9917 6.75827C76.0551 6.6917 76.1536 6.69114 76.2517 6.69057C76.294 6.69033 76.3363 6.69009 76.3756 6.68456C76.6497 6.64581 76.9262 6.62775 77.1985 6.57268C77.306 6.55083 77.4181 6.55083 77.5278 6.54005C77.7688 6.51645 78.0124 6.52461 78.2539 6.50509C78.795 6.46149 79.3365 6.46905 79.8778 6.47662C80.0672 6.47926 80.2566 6.48191 80.446 6.48236C80.8912 6.48353 81.3338 6.54879 81.771 6.64115C81.8425 6.65631 81.9175 6.65464 81.9925 6.65298C82.0256 6.65224 82.0587 6.65151 82.0915 6.65222C82.2051 6.65484 82.3087 6.69155 82.3882 6.76847C82.5029 6.8792 82.4965 7.02017 82.4901 7.16147C82.4892 7.1819 82.4883 7.20234 82.4877 7.22269C82.4804 7.49481 82.3768 7.74858 82.3442 8.0143C82.3304 8.12647 82.3416 8.2398 82.2976 8.34993C82.223 8.53698 82.0572 8.63196 81.9046 8.73423C81.6264 8.92099 81.3111 8.95478 80.9792 8.96498C80.903 8.96741 80.8275 8.96238 80.7522 8.95737C80.6559 8.95096 80.5601 8.94459 80.4639 8.95391C80.1592 8.98363 79.854 9.01684 79.5614 9.11007C79.4836 9.13484 79.4064 9.11124 79.3316 9.136C79.3219 9.18182 79.3486 9.19585 79.3818 9.21322C79.3847 9.21474 79.3876 9.21628 79.3906 9.21787C79.599 9.32917 79.8059 9.44338 80.0113 9.55963C80.0762 9.59634 80.1313 9.59343 80.1962 9.55847C80.5287 9.3787 80.8968 9.27614 81.2275 9.09114C81.3393 9.02849 81.4426 9.09405 81.5316 9.15232C81.6754 9.24643 81.6994 9.24439 81.7658 9.08647C81.7728 9.06987 81.791 9.05821 81.8048 9.04335C81.8908 9.20506 81.8136 9.48767 81.6856 9.60362C81.4664 9.80262 81.2037 9.92499 80.9461 10.0581C80.863 10.1013 80.8202 10.1272 80.9056 10.2219C81.1177 10.457 81.3848 10.6222 81.6287 10.8174C81.8295 10.9779 82.0346 11.1268 82.2858 11.2087C82.3058 11.1897 82.2937 11.1701 82.2808 11.1491C82.2689 11.1298 82.2564 11.1094 82.2676 11.0875C82.5497 11.2023 82.6808 11.6198 82.5109 11.8639C82.4138 12.0032 82.3451 12.1591 82.2333 12.2905C82.1103 12.435 81.9601 12.5469 81.7928 12.6153C81.6689 12.666 81.5935 12.7596 81.4949 12.8306C81.3886 12.907 81.31 12.9058 81.2222 12.8062C81.148 12.7217 81.0121 12.7462 80.9707 12.8487C80.9396 12.9265 80.9455 12.9964 81.0567 13.0025C81.0721 13.0034 81.0874 13.0043 81.1028 13.0051C81.2958 13.016 81.4876 13.0268 81.6806 12.9769C81.8512 12.9329 82.0161 13.0579 82.056 13.2298C82.0704 13.2927 82.093 13.3595 82.1306 13.4104C82.2116 13.5203 82.1508 13.5771 82.0607 13.6208C81.9891 13.6555 81.9113 13.677 81.8365 13.705C81.7605 13.7333 81.7332 13.7749 81.8145 13.8271C81.9048 13.8848 81.8749 13.9067 81.8229 13.9447C81.8138 13.9514 81.8039 13.9586 81.7939 13.9666C81.6114 14.1135 81.4036 14.198 81.1791 14.2449C81.1065 14.2602 81.1104 14.2994 81.115 14.3468L81.1151 14.3477C81.1224 14.4209 81.1659 14.4587 81.2404 14.4587C81.2959 14.4588 81.3514 14.4585 81.4068 14.4582L81.407 14.4582C81.5178 14.4575 81.6287 14.4569 81.7393 14.4596C82.017 14.4669 82.2902 14.5097 82.5614 14.5668C82.5652 14.5677 82.5691 14.5687 82.5729 14.5698C82.5833 14.5726 82.5937 14.5754 82.604 14.575C82.9154 14.563 83.2246 14.5897 83.534 14.6164C83.6016 14.6223 83.6692 14.6281 83.7368 14.6335C84.2375 14.674 84.7376 14.7175 85.2389 14.7478C85.5021 14.7638 85.7666 14.7696 86.0313 14.7533C86.1824 14.744 86.3236 14.7839 86.4278 14.9109C86.5129 15.0146 86.5144 15.0982 86.4096 15.1804C86.4067 15.1827 86.4039 15.1848 86.4011 15.1869C86.3804 15.2026 86.3657 15.2137 86.3688 15.2433C86.3718 15.2721 86.3898 15.2731 86.4086 15.2742ZM63.1272 7.56129C63.1762 7.40746 63.1809 7.2443 63.2009 7.08872C63.2223 6.92148 63.332 6.90138 63.4301 6.89351C63.4818 6.88917 63.5334 6.88033 63.584 6.87163C63.6831 6.85463 63.7789 6.8382 63.8665 6.85709C64.2216 6.85709 64.3399 6.95149 64.4156 7.28247C64.4212 7.30709 64.4304 7.33055 64.4395 7.35398C64.4624 7.41317 64.4854 7.47221 64.4526 7.54964C64.3815 7.716 64.3443 7.74135 64.1758 7.65103C64.168 7.64688 64.161 7.64149 64.1541 7.63611C64.1391 7.62447 64.1241 7.61292 64.1013 7.61432C63.9908 7.62054 63.88 7.61743 63.7693 7.61432C63.5847 7.60913 63.4001 7.60394 63.2167 7.642C63.1521 7.6554 63.1034 7.63529 63.1272 7.56129ZM60.9233 7.54119C60.9236 7.55774 60.924 7.57428 60.9226 7.59083C60.9132 7.70795 60.9088 7.80847 61.0837 7.73417C61.1222 7.71791 61.1692 7.72159 61.224 7.72589C61.2517 7.72806 61.2814 7.73039 61.313 7.73039C61.3824 7.74623 61.4589 7.73264 61.5392 7.71838C61.5934 7.70878 61.6492 7.69887 61.7056 7.69746C61.7514 7.69659 61.7919 7.67299 61.8087 7.6051C61.8476 7.44728 61.808 7.29935 61.7691 7.15419C61.7637 7.13401 61.7583 7.11388 61.7532 7.09378C61.7478 7.07282 61.752 7.04696 61.7561 7.02059C61.7655 6.96157 61.7753 6.89998 61.6804 6.88488C61.5947 6.87148 61.5096 6.8945 61.4283 6.92509C61.4151 6.93004 61.4034 6.93965 61.3899 6.94286C61.0635 7.02211 60.9229 7.19488 60.9229 7.51828C60.9229 7.52592 60.9231 7.53356 60.9233 7.54119ZM55.6127 12.4502C55.5308 12.354 55.425 12.3578 55.3194 12.3616C55.2928 12.3625 55.2663 12.3634 55.2402 12.3628C55.2055 12.362 55.1707 12.362 55.1358 12.3621C55.0875 12.3622 55.0392 12.3623 54.9911 12.3599C54.9652 12.3587 54.9306 12.3477 54.9561 12.3063C54.96 12.3001 54.9724 12.3016 54.9847 12.3031C55.0074 12.3057 55.0297 12.3084 54.9975 12.2635C54.9688 12.2232 54.9338 12.2002 54.8748 12.2329C54.7084 12.3255 54.5153 12.3544 54.3357 12.3812C54.1799 12.4044 54.0292 12.3525 53.8779 12.3004C53.8017 12.2742 53.7253 12.2479 53.6481 12.2311C53.5602 12.212 53.4772 12.1755 53.3942 12.139C53.2449 12.0734 53.0957 12.0079 52.9188 12.0435C52.9233 12.0168 52.9424 12.0001 52.9594 11.9853C52.9786 11.9685 52.9952 11.954 52.9854 11.9299C52.9648 11.8792 52.9097 11.8722 52.8527 11.8628C52.7664 11.8492 52.6719 11.8436 52.6024 11.7766C52.5005 11.6784 52.3644 11.6338 52.2367 11.6394C51.9011 11.6541 51.5899 11.5562 51.2815 11.4592C51.2428 11.447 51.2041 11.4348 51.1655 11.4229C50.862 11.3294 50.5814 11.1662 50.2824 11.0558C49.954 10.9346 49.625 10.8175 49.3021 10.6805C49.1765 10.6272 49.1985 10.6045 49.2781 10.5351C49.2191 10.5008 49.1698 10.4606 49.1134 10.4413C48.753 10.319 48.4355 10.1013 48.071 9.98653C47.9698 9.95462 47.8819 9.89219 47.7939 9.82967C47.6522 9.72896 47.5102 9.62803 47.3117 9.6541C47.3023 9.65526 47.2918 9.65497 47.2827 9.65235C47.1315 9.60807 46.9821 9.62292 46.8278 9.64332C46.6749 9.66342 46.5715 9.77064 46.4371 9.82221C46.5434 9.70946 46.6258 9.57631 46.7673 9.50201C46.8903 9.43733 46.9041 9.32808 46.9061 9.20105C46.9064 9.18524 46.906 9.16891 46.9057 9.15237L46.9057 9.15222L46.9057 9.15181C46.9035 9.04929 46.9012 8.93827 47.0344 8.88668C47.0617 8.87619 47.0743 8.85404 47.0482 8.8217C46.946 8.69526 47.0426 8.65214 47.1412 8.61251C47.1758 8.59853 47.2137 8.59066 47.2469 8.57405L47.2532 8.57091C47.3074 8.54385 47.3665 8.51438 47.2821 8.44819C47.2427 8.41731 47.2383 8.38671 47.2803 8.35496C47.3801 8.28008 47.3229 8.23958 47.2451 8.20928C47.1755 8.18218 47.1116 8.14751 47.0329 8.13353C46.8636 8.10352 46.666 8.08371 46.6631 7.84014C46.6625 7.78711 46.6197 7.76817 46.5936 7.73554C46.5108 7.63211 46.3661 7.60909 46.283 7.51178C46.1161 7.31599 45.8551 7.32677 45.6523 7.21285C45.6388 7.2053 45.6281 7.21121 45.6177 7.21686C45.6121 7.21993 45.6067 7.22292 45.601 7.22363C45.4073 7.24694 45.2887 7.37951 45.2124 7.5313C45.0956 7.76409 44.9718 7.94706 44.6724 7.97008C44.3862 7.99222 44.1221 8.06419 43.909 8.31067C43.5193 8.76169 43.5269 9.32895 43.8327 9.7619C43.895 9.85018 43.9399 9.99411 44.0819 10.0002C44.1119 10.0015 44.1418 10.003 44.1718 10.0046C44.4102 10.0166 44.6471 10.0286 44.8828 9.93001C45.0935 9.84173 45.3225 9.80152 45.5182 9.99994C45.569 10.0512 45.6544 10.0876 45.7313 10.0573C45.9247 9.98129 46.1395 10.0084 46.3464 9.90379C46.2238 10.0766 46.0767 10.1925 45.967 10.3367C45.5699 10.8597 45.1481 11.36 44.6753 11.8177C44.6325 11.8593 44.5811 11.8873 44.5392 11.9357C44.3977 12.0985 44.2627 12.2678 44.1145 12.424C43.8762 12.6746 43.6293 12.9175 43.3673 13.1451C43.1668 13.3193 42.9869 13.5174 42.7832 13.6876C42.6136 13.8295 42.4401 13.9667 42.2365 14.069C42.0299 14.1727 41.8309 14.2997 41.6706 14.4748C41.5926 14.5605 41.5911 14.6488 41.6874 14.7131C41.719 14.7344 41.7475 14.7592 41.7786 14.7805C42.0348 14.9561 42.3025 15.0913 42.6221 14.9582C42.9238 14.8326 43.2094 14.6729 43.4908 14.5095C43.7928 14.3341 44.1127 14.1765 44.2982 13.8525C44.408 13.6608 44.5958 13.5303 44.7287 13.3528C44.9175 13.1017 45.1091 12.8476 45.333 12.6291C45.6377 12.3316 45.9711 12.0633 46.3523 11.8596C46.4107 11.8285 46.4603 11.8113 46.5237 11.8069C46.8216 11.787 47.107 11.8507 47.3925 11.9144C47.5546 11.9506 47.7167 11.9868 47.8811 12.0076C48.1458 12.0412 48.3865 12.186 48.6427 12.2649C49.124 12.4129 49.6088 12.5504 50.0957 12.6801C50.4643 12.7783 50.8104 12.9414 51.1893 13.0154C51.3923 13.0551 51.5963 13.1218 51.7991 13.1786C52.1642 13.2809 52.5516 13.2409 52.9132 13.354C53.0005 13.3813 53.0894 13.3801 53.1783 13.379C53.2717 13.3778 53.365 13.3767 53.4561 13.4085C53.6516 13.4766 53.8609 13.4682 54.0637 13.495C54.3776 13.5361 54.6498 13.4085 54.9199 13.2819C54.9637 13.2614 55.0074 13.2409 55.0512 13.2211C55.1249 13.1879 55.139 13.0752 55.2276 13.0411C55.2326 13.0393 55.2308 12.9878 55.2173 12.9764C55.1544 12.923 55.194 12.9089 55.2306 12.8958C55.2374 12.8934 55.244 12.891 55.2499 12.8884C55.345 12.8465 55.4539 12.8529 55.5475 12.7998C55.6009 12.7695 55.6505 12.7285 55.5886 12.6906C55.5796 12.6851 55.5705 12.6789 55.5612 12.6727C55.523 12.6469 55.481 12.6185 55.4199 12.6192C55.2253 12.6209 55.033 12.5834 54.8429 12.5385C54.8094 12.5306 54.7912 12.5254 54.7906 12.4872C54.79 12.4505 54.7965 12.419 54.8288 12.3992C54.862 12.3787 54.8823 12.4041 54.899 12.4251L54.9007 12.4272C54.9465 12.4849 55.0254 12.514 55.0771 12.5015C55.1694 12.479 55.2624 12.4811 55.3552 12.4831C55.4414 12.485 55.5274 12.4868 55.6124 12.469L55.6123 12.4698C55.6584 12.4791 55.7045 12.4864 55.7552 12.4707C55.7136 12.4089 55.6693 12.3911 55.6129 12.4503C55.6127 12.4558 55.6126 12.4614 55.6124 12.4671C55.611 12.4618 55.6114 12.456 55.6127 12.4502ZM47.8963 9.6985C47.9184 9.92051 48.0516 9.9951 48.2506 9.89516C48.3533 9.8433 48.454 9.81038 48.5696 9.79202C48.7293 9.76638 48.8942 9.72938 49.0354 9.6411C49.3236 9.46075 49.6229 9.30779 49.9557 9.2268C50.0887 9.19446 50.2252 9.17144 50.3537 9.12657C50.5483 9.05869 50.7455 8.98993 50.9257 8.89262C51.0364 8.83289 51.1138 8.70732 51.1458 8.58553C51.1554 8.54913 51.1849 8.5183 51.2145 8.48746C51.2717 8.42773 51.3289 8.36798 51.2412 8.26766C51.2365 8.26242 51.2456 8.23358 51.2541 8.23037C51.3404 8.19745 51.3818 8.11412 51.4505 8.06197C51.5491 7.98709 51.5464 7.94077 51.4381 7.87609C51.3598 7.82918 51.2823 7.7814 51.1898 7.72546C51.2023 7.7208 51.2119 7.71658 51.2196 7.71318C51.2326 7.70744 51.2403 7.70404 51.2477 7.70477C51.2562 7.70552 51.2652 7.71197 51.2742 7.71838C51.2931 7.73198 51.3119 7.7454 51.3254 7.70361C51.3393 7.6611 51.3153 7.6556 51.2866 7.64902C51.2776 7.64694 51.2681 7.64476 51.2591 7.64126C50.8622 7.4879 50.4554 7.51513 50.0485 7.54237C49.9761 7.54721 49.9036 7.55206 49.8313 7.55589C49.8002 7.55764 49.765 7.55968 49.7573 7.59027C49.7302 7.6995 49.6721 7.67973 49.6022 7.65597C49.5934 7.65299 49.5845 7.64994 49.5754 7.64708C49.2904 7.55706 49.0348 7.40497 48.7709 7.27211C48.5678 7.16985 48.4278 7.18791 48.306 7.37758C48.2324 7.49208 48.1763 7.62144 48.0871 7.72196C47.9094 7.92183 47.9254 8.17257 47.9393 8.39204L47.9407 8.41305C47.951 8.57686 47.9396 8.73837 47.9282 8.89961L47.9282 8.89969L47.9282 8.89978L47.9282 8.89986L47.9282 8.90002C47.9185 9.03689 47.9088 9.17357 47.9125 9.31129C47.914 9.36617 47.9086 9.42262 47.9031 9.47965C47.8962 9.55248 47.8891 9.62613 47.8963 9.6985ZM32.9847 7.80591C32.7869 7.70481 32.6217 7.56205 32.4697 7.40501C32.4165 7.35023 32.3596 7.34208 32.2994 7.35402C32.0497 7.40413 31.7976 7.44055 31.5549 7.52505C31.2582 7.62848 31.0876 7.84291 31.0574 8.13397C31.0275 8.42096 31.2168 8.63539 31.4272 8.80408C31.6385 8.97336 31.8988 9.04445 32.1633 9.10767C32.3021 9.14089 32.4271 9.16303 32.5659 9.12953C32.9838 9.02872 33.1913 8.80525 33.1919 8.44601C33.1916 8.4362 33.1915 8.4264 33.1914 8.41665C33.1908 8.3702 33.1903 8.32443 33.1632 8.27965C33.16 8.27443 33.1568 8.26921 33.1536 8.26399C33.0855 8.15231 33.0165 8.03933 33.0443 7.8971C33.0531 7.85107 33.0161 7.82193 32.9847 7.80591ZM35.5907 7.67326C35.5849 7.67108 35.5781 7.67172 35.5712 7.67236C35.568 7.67266 35.5648 7.67296 35.5616 7.67296C35.424 7.67588 35.2963 7.75716 35.311 7.83845C35.3477 8.04123 35.3436 8.25101 35.4213 8.44709C35.5003 8.64667 35.6412 8.79846 35.8261 8.89198C36.0409 9.00066 36.2807 9.04349 36.5205 9.07874C36.6722 9.10118 36.801 9.07583 36.9131 8.97356C36.9671 8.92432 37.0088 8.85498 37.0707 8.82264C37.2125 8.74864 37.2427 8.62074 37.2706 8.48555C37.297 8.35844 37.2605 8.24233 37.224 8.12622C37.2078 8.07442 37.1915 8.02262 37.1808 7.96985C37.13 7.71783 37.1265 7.71696 36.8744 7.67384C36.8321 7.66655 36.8084 7.63655 36.7743 7.61936C36.5595 7.51155 36.3323 7.4527 36.0923 7.4393C36.072 7.43821 36.0524 7.4417 36.0327 7.4452C35.9895 7.45289 35.946 7.46063 35.8947 7.41978C35.8369 7.37374 35.7506 7.42677 35.7765 7.51709C35.8352 7.72162 35.7439 7.72861 35.5907 7.67326ZM27.2415 13.6207C27.1222 13.5944 27.011 13.5443 26.8997 13.4943C26.7362 13.4207 26.5727 13.3472 26.3842 13.3494C26.3446 13.3499 26.3127 13.3288 26.2792 13.3066C26.2494 13.2869 26.2184 13.2664 26.1796 13.2594C25.9953 13.2265 25.8137 13.172 25.6352 13.1143C25.3303 13.0158 25.0694 12.8398 24.8061 12.6604C24.4997 12.4515 24.1787 12.263 23.8441 12.0966C23.5823 11.9667 23.3997 11.7228 23.1559 11.5611C22.9038 11.3939 22.6646 11.21 22.4577 10.988C22.4511 10.981 22.4439 10.9738 22.4365 10.9665C22.4033 10.9336 22.3675 10.8982 22.3808 10.8613C22.3907 10.8339 22.4712 10.831 22.5205 10.8187C22.5289 10.8166 22.5381 10.8171 22.5473 10.8176C22.553 10.8179 22.5588 10.8182 22.5645 10.8179C22.8137 10.8071 23.0646 10.7925 23.3041 10.7267C23.6386 10.6349 23.982 10.5915 24.2467 10.2943C24.4381 10.0793 24.4501 9.82434 24.5505 9.5933C24.5986 9.48258 24.6256 9.35206 24.6755 9.23406C24.688 9.2047 24.7061 9.17694 24.7241 9.14927C24.7783 9.06602 24.832 8.98366 24.7295 8.86142C24.6763 8.79766 24.6241 8.79723 24.5711 8.79679C24.5488 8.7966 24.5263 8.79642 24.5035 8.79149C24.2931 8.74604 24.0812 8.69884 23.867 8.69506C23.3513 8.68602 22.8354 8.68398 22.3203 8.72099C22.3141 8.72145 22.3077 8.72129 22.3012 8.72114C22.2873 8.7208 22.2734 8.72047 22.2628 8.72623C22.126 8.79936 22.1002 8.67991 22.1028 8.60969C22.1091 8.43492 22.0517 8.28114 21.9933 8.12455C21.989 8.11303 21.9847 8.10148 21.9804 8.08992C21.8845 7.83032 21.576 7.60948 21.2993 7.61589C21.2488 7.61705 21.2065 7.60744 21.1616 7.58675C20.7631 7.40232 20.3537 7.39824 19.929 7.48915C19.796 7.5177 19.7605 7.64298 19.6484 7.67532C19.5742 7.69688 19.5612 7.7537 19.5736 7.82012C19.5879 7.89879 19.6073 7.97687 19.6196 8.05583C19.6546 8.28134 19.6889 8.50655 19.7188 8.73264C19.7312 8.82587 19.7006 8.9025 19.5877 8.89434C19.4056 8.88141 19.2248 8.89741 19.0442 8.91339C18.9685 8.92009 18.8929 8.92678 18.8173 8.93134C18.7465 8.93573 18.6783 8.92451 18.6106 8.91334C18.53 8.90006 18.45 8.88687 18.3668 8.90017C18.1736 8.93076 17.9838 8.98029 17.7859 8.98583C17.6659 8.98903 17.5485 8.99865 17.498 9.15772C17.439 9.34332 17.3258 9.51201 17.2665 9.69731C17.2233 9.83191 17.1544 9.95399 17.1115 10.0857C17.0607 10.2424 17.0693 10.41 17.0819 10.572C17.0965 10.7593 17.1162 10.974 17.2477 11.0996C17.4047 11.2493 17.5758 11.4128 17.8267 11.4341C17.9582 11.4451 18.095 11.4647 18.2203 11.497C18.2836 11.5134 18.3432 11.5054 18.4036 11.4973C18.462 11.4894 18.521 11.4815 18.5845 11.4955C18.5091 11.645 18.4319 11.7881 18.3054 11.8784C18.2849 11.893 18.2644 11.9109 18.2434 11.9291C18.1584 12.0031 18.0656 12.0839 17.9289 11.9862C17.9236 11.9824 17.8966 12.0028 17.8837 12.0156C17.8012 12.0981 17.7085 12.1738 17.6416 12.2676C17.5861 12.3454 17.5242 12.3769 17.4335 12.3935C17.2583 12.4258 17.0828 12.4331 16.9149 12.529C16.5686 12.7265 16.3989 13.0584 16.4908 13.4447C16.4935 13.4563 16.4966 13.4681 16.4997 13.4799C16.5111 13.5237 16.5227 13.5684 16.5193 13.6113C16.4952 13.9044 16.9108 14.2156 17.1916 14.132C17.4247 14.0626 17.6639 14.0673 17.8981 14.0315C18.3321 13.965 18.7274 13.8313 19.0908 13.588C19.2044 13.512 19.3115 13.4161 19.435 13.3666C19.7758 13.23 20.0379 12.996 20.2882 12.7431C20.3862 12.6441 20.4757 12.5365 20.5717 12.4352C20.5744 12.4323 20.5775 12.4288 20.5808 12.425C20.6013 12.4017 20.631 12.3677 20.6495 12.4049C20.7117 12.5313 20.8599 12.5464 20.9412 12.6508C21.0475 12.7865 21.1678 12.9147 21.2987 13.0275C21.4847 13.1877 21.7005 13.3098 21.8947 13.4628C22.1562 13.669 22.4054 13.8966 22.7259 14.0259C22.9343 14.1098 23.1218 14.2433 23.327 14.3374C23.4147 14.3779 23.5086 14.3992 23.5946 14.4542C23.7079 14.5265 23.8335 14.5955 23.9726 14.6025C24.3515 14.6218 24.7093 14.7564 25.0882 14.7881C25.2016 14.7976 25.3138 14.8198 25.4262 14.842C25.6094 14.8782 25.7933 14.9146 25.9839 14.8965C25.9984 14.895 26.0132 14.8984 26.0281 14.9017C26.037 14.9037 26.046 14.9057 26.0549 14.9067C26.1193 14.9138 26.182 14.9292 26.2449 14.9445C26.3433 14.9686 26.4419 14.9927 26.5471 14.9854C26.7816 14.969 27.0064 14.8942 27.1047 14.6893C27.2092 14.4714 27.3879 14.2998 27.4478 14.0501C27.5009 13.8281 27.4692 13.6708 27.2415 13.6207ZM50.7554 7.68363L50.9935 7.68363C50.8946 7.61173 50.825 7.61556 50.7554 7.68363ZM50.6623 7.64612C50.6623 7.66362 50.6626 7.68112 50.6626 7.69862L50.1725 7.69862C50.1725 7.68112 50.1725 7.66362 50.1722 7.64612L50.6623 7.64612ZM7.65342 7.98835C7.55425 8.00604 7.45122 8.00272 7.34822 7.9994L7.3482 7.9994L7.34819 7.9994C7.30367 7.99797 7.25915 7.99653 7.21495 7.9968C7.19084 7.99703 7.16299 7.993 7.16299 7.9705C7.16299 7.9648 7.16478 7.95791 7.16888 7.9496C7.20321 7.87996 7.17651 7.76663 7.30447 7.75964C7.40102 7.75439 7.49817 7.75148 7.59414 7.74798C7.66505 7.74549 7.73598 7.74189 7.80693 7.73829C8.10919 7.72296 8.41168 7.70762 8.71379 7.7777C8.81065 7.80022 8.91377 7.79618 9.01691 7.79214C9.0619 7.79038 9.10689 7.78862 9.15137 7.78906C9.2491 7.79023 9.34654 7.79023 9.44427 7.78906C9.50238 7.78819 9.53731 7.80946 9.53907 7.88259C9.53733 7.88739 9.53571 7.89217 9.53412 7.89688C9.51896 7.9416 9.50581 7.98037 9.4158 7.97932C9.35965 7.97872 9.30354 7.97543 9.24736 7.97215C9.1121 7.96423 8.97641 7.95629 8.83852 7.98573C8.7292 8.00893 8.61272 8.00265 8.49733 7.99642C8.46495 7.99467 8.43266 7.99293 8.40064 7.99184C8.33385 7.9895 8.26726 7.98494 8.2007 7.98038C8.01895 7.96793 7.83752 7.95551 7.65342 7.98835ZM63.4752 8.72096C63.4346 8.7209 63.4002 8.72085 63.3658 8.72103C63.1466 8.72249 63.0985 8.77114 63.1263 8.98325C63.1437 9.11378 63.1621 9.25362 63.3195 9.29791C63.4826 9.34394 63.6476 9.38852 63.8146 9.41503C63.8255 9.41672 63.8377 9.41934 63.8504 9.42209C63.9148 9.43597 63.9955 9.45335 64.02 9.37337C64.0394 9.30986 64.081 9.32093 64.1086 9.29529C64.1662 9.24168 64.2941 9.28072 64.2956 9.17146C64.2971 9.03686 64.31 8.904 64.329 8.77144C64.3423 8.67995 64.3064 8.66101 64.2175 8.65985C64.1103 8.65851 64.0049 8.67609 63.9019 8.69327C63.7814 8.71339 63.664 8.73297 63.5507 8.72103C63.5228 8.72103 63.498 8.72099 63.4752 8.72096ZM61.7172 8.89417C61.7137 8.92727 61.7146 8.96065 61.7155 8.99411C61.7159 9.00925 61.7163 9.0244 61.7163 9.03956C61.7163 9.39181 61.7163 9.38685 61.3568 9.39385C61.2039 9.39676 61.1261 9.32421 61.0903 9.19165C61.0683 9.11036 61.0551 9.02674 61.0424 8.94341C61.0345 8.89126 61.0524 8.85805 61.1102 8.83474C61.252 8.77763 61.3949 8.73568 61.5481 8.71995C61.6887 8.70509 61.7304 8.76744 61.7172 8.89417ZM23.0091 8.81859C22.7896 8.8287 22.5701 8.83882 22.3502 8.83765C22.3061 8.83739 22.2618 8.83758 22.2044 8.83783L22.1785 8.83794C22.2798 8.90699 24.4979 8.9842 24.6147 8.91253C24.4519 8.95041 24.3159 8.91362 24.1883 8.8791C24.15 8.86876 24.1125 8.85862 24.0753 8.85076C23.8795 8.8091 23.6985 8.79715 23.5004 8.80065C23.3365 8.80351 23.1728 8.81105 23.0091 8.81859ZM62.109 10.6022C62.1102 10.5672 62.1463 10.5524 62.1836 10.5567C62.1888 10.5573 62.1947 10.557 62.2007 10.5567C62.2198 10.5558 62.24 10.5549 62.2414 10.5806C62.2434 10.6197 62.2138 10.6383 62.1768 10.6435C62.1419 10.6479 62.1081 10.6269 62.109 10.6022ZM62.6717 10.638L62.8578 10.638C62.7812 10.5302 62.7627 10.531 62.6717 10.638ZM62.512 10.5837C62.5242 10.5813 62.5364 10.5788 62.5416 10.5677C62.5651 10.5601 62.5801 10.5776 62.5827 10.5924C62.5892 10.6274 62.5607 10.639 62.5331 10.6419C62.5314 10.6421 62.5297 10.6424 62.528 10.6426C62.5076 10.6451 62.4819 10.6483 62.4806 10.6146C62.4796 10.5902 62.4957 10.587 62.512 10.5837ZM62.981 10.6221C63.0159 10.6597 63.0544 10.646 63.1087 10.6221C63.0626 10.5714 63.0241 10.5819 62.9863 10.5982C62.9813 10.6002 62.9775 10.6186 62.981 10.6221ZM63.753 10.6562C63.78 10.7215 63.824 10.7089 63.8719 10.6843C63.8518 10.6897 63.8365 10.6798 63.8207 10.6696C63.8019 10.6575 63.7823 10.6448 63.753 10.6562ZM63.9544 10.6828C63.9412 10.691 63.9169 10.7149 63.9321 10.7213C63.951 10.7292 63.9734 10.729 64.0011 10.7289C64.0142 10.7288 64.0285 10.7287 64.0442 10.7294C64.0344 10.7208 64.0266 10.7114 64.0195 10.7028C64.0007 10.6801 63.9867 10.6632 63.9544 10.6828ZM72.1577 16.7052C72.1145 16.7002 72.0707 16.7011 72.0268 16.7021C71.9922 16.7029 71.9576 16.7036 71.9232 16.7014C71.8772 16.6986 71.8305 16.6977 71.7838 16.6967C71.6645 16.6944 71.5448 16.6921 71.436 16.6571C71.0759 16.5412 70.7099 16.4995 70.3357 16.4989L70.3242 16.4989C70.2324 16.4989 70.146 16.4988 70.1347 16.371C70.1326 16.3474 70.103 16.323 70.0684 16.3241C69.99 16.3269 69.9145 16.3104 69.8387 16.2938C69.7603 16.2767 69.6816 16.2595 69.5994 16.2635C69.3206 16.2771 69.0575 16.1912 68.7977 16.1064L68.7926 16.1047C68.7081 16.0771 68.6279 16.0657 68.5411 16.0549C68.394 16.0366 68.2476 16.0144 68.0988 16.0071C67.9867 16.0017 67.8839 15.9638 67.7798 15.9254C67.6619 15.882 67.5425 15.838 67.4064 15.8399C67.2747 15.8417 67.1728 15.8501 67.066 15.9142C66.9777 15.9672 66.8978 15.9279 66.8694 15.8332C66.8591 15.7989 66.8787 15.7812 66.899 15.763C66.9213 15.7429 66.9444 15.7221 66.9284 15.6776C66.8708 15.7231 66.8218 15.6954 66.7731 15.6558C66.6372 15.5445 66.4541 15.5497 66.3047 15.4713L66.3019 15.4699C66.2858 15.4614 66.2766 15.4566 66.2572 15.469C66.1415 15.5421 66.0602 15.4754 65.9898 15.3941C65.9229 15.3166 65.8483 15.3021 65.7439 15.298C65.7261 15.2973 65.7083 15.2968 65.6904 15.2962C65.4518 15.2887 65.2029 15.2808 65.0732 15.0125C65.0665 14.9988 65.0424 14.9915 65.0251 14.9848C64.8681 14.9256 64.7087 14.8726 64.5552 14.8059C64.5452 14.8015 64.529 14.8 64.5114 14.7983C64.4546 14.7929 64.3839 14.7861 64.4657 14.68C64.4927 14.6448 64.4493 14.6078 64.4202 14.6095C64.2879 14.6184 64.1791 14.5612 64.0704 14.5041C64.0113 14.4731 63.9522 14.442 63.8893 14.4216C63.7223 14.3671 63.5427 14.3007 63.4174 14.148C63.4732 14.1122 63.5192 14.0793 63.5685 14.0516C63.8705 13.8817 64.1611 13.6999 64.341 13.3885C64.3589 13.3573 64.4202 13.3212 64.4472 13.3299C64.5746 13.3713 64.7114 13.3462 64.8387 13.3989C64.8496 13.4034 64.8606 13.4081 64.8716 13.4128C64.9419 13.4426 65.0156 13.4739 65.097 13.4692C65.505 13.4456 65.8841 13.364 66.1826 13.047C66.3552 12.8637 66.5025 12.661 66.6739 12.4777C66.8001 12.3431 66.9134 12.1968 66.9686 12.0159C67.093 11.6097 66.8057 11.1121 66.4999 10.9195C66.44 10.882 66.3608 10.8852 66.3123 10.8237C66.2827 10.7861 66.2407 10.7331 66.1938 10.7663C66.1539 10.7943 66.1756 10.8505 66.2032 10.8956C66.2466 10.9664 66.2205 11.0014 66.1377 10.9927C66.1229 10.9911 66.1082 10.9908 66.0936 10.9905C66.0575 10.9898 66.0215 10.9891 65.9833 10.9688C65.8724 10.9099 65.7527 10.8683 65.625 10.8146C65.6429 10.9956 65.5143 11.0157 65.3911 11.0192C65.2473 11.0233 65.1507 11.1238 65.028 11.1686C64.9881 11.1832 64.996 11.2223 65.0046 11.2412C65.0603 11.3618 65.0518 11.4909 65.0685 11.6173C65.1243 12.0386 65.05 12.2251 64.7202 12.4174C64.6791 12.4413 64.6362 12.4576 64.6192 12.3798C64.5752 12.1796 64.4516 12.0139 64.3653 11.8321C64.277 11.6465 64.0983 11.5206 64.024 11.3231C64.0058 11.2744 63.9477 11.2365 63.9011 11.2036C63.8758 11.1858 63.8274 11.1823 63.8063 11.2106C63.7854 11.2386 63.8171 11.2677 63.8432 11.2767C63.9148 11.3024 63.877 11.3767 63.9298 11.4166C63.9168 11.4185 63.9043 11.4215 63.8925 11.4243C63.8525 11.434 63.8203 11.4417 63.8004 11.3994C63.7787 11.3539 63.7235 11.3636 63.7153 11.374C63.6376 11.4771 63.5645 11.4412 63.489 11.404C63.468 11.3937 63.4468 11.3833 63.4253 11.3758C63.3537 11.3507 63.2847 11.3799 63.226 11.43C63.1468 11.4976 63.0643 11.5532 62.9736 11.4536C62.9487 11.4731 62.9488 11.4963 62.949 11.5183C62.9491 11.5351 62.9492 11.551 62.9381 11.564C62.905 11.5457 62.8715 11.5282 62.8392 11.5087C62.7573 11.4588 62.7377 11.5203 62.7453 11.5736C62.7788 11.8003 62.7751 12.0276 62.7714 12.255L62.7714 12.2551C62.7694 12.3764 62.7675 12.4976 62.7711 12.6187C62.772 12.6513 62.767 12.6822 62.7553 12.716C62.6846 12.9197 62.6127 13.1184 62.438 13.2658C62.4193 13.2817 62.4045 13.3037 62.3898 13.3256C62.3588 13.3719 62.328 13.4178 62.2599 13.4059C62.1783 13.3917 62.0844 13.3669 62.0263 13.3136C61.7686 13.0773 61.6286 12.7699 61.6045 12.4305C61.5863 12.1738 61.518 11.9521 61.3639 11.7502C61.3602 11.7454 61.3563 11.7405 61.3524 11.7356C61.3195 11.6946 61.2831 11.649 61.3363 11.5929C61.3708 11.5564 61.3441 11.5362 61.3209 11.5186C61.3191 11.5172 61.3172 11.5159 61.3154 11.5145C61.2479 11.4626 61.1781 11.414 61.1088 11.3641C61.0146 11.2965 60.968 11.3196 60.982 11.4355C60.9958 11.5497 60.931 11.5675 60.8374 11.5765C60.7382 11.5862 60.6296 11.5923 60.5638 11.6829C60.5345 11.7234 60.5045 11.7365 60.4576 11.754C60.2116 11.8446 59.9678 11.9422 59.8724 12.2236C59.8474 12.2971 59.868 12.3952 59.7902 12.4401C59.7416 12.468 59.6918 12.4521 59.6412 12.4358C59.6115 12.4263 59.5814 12.4166 59.551 12.4156C59.3799 12.4101 59.362 12.3751 59.3949 12.2134C59.4049 12.1648 59.4295 12.1269 59.4512 12.0849C59.5228 11.9457 59.495 11.8309 59.3667 11.7344C59.3441 11.7176 59.313 11.7097 59.2948 11.6899C59.1161 11.4961 58.9831 11.4877 58.775 11.6505C58.6251 11.7682 58.5068 11.9221 58.3542 12.0325C57.894 12.3661 57.7009 12.853 57.8435 13.3835C57.8852 13.5388 57.9377 13.7142 58.0774 13.7905C58.2541 13.8873 58.4771 13.9245 58.6711 13.8887C58.8399 13.8575 59.0045 13.8476 59.1715 13.8476C59.4371 13.8479 59.6757 13.7722 59.8953 13.6282C60.0353 13.5362 60.0781 13.549 60.1295 13.7154C60.2642 14.1536 60.5835 14.4679 60.9054 14.7564C61.157 14.9813 61.4308 15.2004 61.758 15.3359C61.9963 15.4346 62.2144 15.5803 62.4477 15.6922C62.7309 15.8282 63.0139 15.9643 63.3065 16.0809C63.6997 16.2379 64.0821 16.4238 64.4798 16.5674C64.834 16.6953 65.1903 16.8171 65.5716 16.8684C66.0212 16.929 66.4382 17.1233 66.8714 17.253C67.056 17.3083 67.2353 17.3887 67.4232 17.424C67.7302 17.4817 68.0257 17.5839 68.3406 17.6169C68.6544 17.6498 68.9678 17.6976 69.283 17.7174C69.4876 17.7302 69.6939 17.7258 69.899 17.7159C69.9242 17.7147 69.9484 17.7257 69.9714 17.7361C70.0042 17.751 70.0344 17.7647 70.0613 17.7404C70.1292 17.6789 70.2042 17.6843 70.2781 17.6896C70.2984 17.6911 70.3187 17.6926 70.3387 17.6926C70.6856 17.6932 71.0301 17.6766 71.3638 17.5726C71.5869 17.5029 71.8049 17.4234 71.9637 17.2355C72.0318 17.1548 72.0309 17.1134 71.9261 17.0767C71.8665 17.0557 71.8137 17.0155 71.7183 16.9616C71.8641 16.9668 71.9699 16.9245 72.0711 16.8841C72.1006 16.8722 72.1298 16.8606 72.1594 16.8503C72.2099 16.8328 72.2672 16.811 72.2672 16.7728C72.2689 16.7309 72.2017 16.7102 72.1577 16.7052ZM12.2684 11.4049C12.254 11.4862 12.2358 11.5445 12.1357 11.4903C12.1208 11.4821 12.0935 11.4821 12.0782 11.4903C11.9001 11.5838 11.7073 11.5989 11.5109 11.6027C11.4277 11.6044 11.3445 11.6083 11.2613 11.6123C11.0373 11.6229 10.8134 11.6335 10.5908 11.5995C10.4796 11.5826 10.3698 11.5847 10.2598 11.5783C10.2045 11.5751 10.1492 11.5745 10.0939 11.5739C9.98048 11.5726 9.86713 11.5714 9.7547 11.5483C9.67212 11.5311 9.59072 11.5476 9.51008 11.564C9.47694 11.5707 9.44393 11.5774 9.41102 11.5818C9.33284 11.5921 9.25593 11.5758 9.1802 11.5596C9.08594 11.5395 8.99351 11.5198 8.90271 11.5526C8.76987 11.6008 8.63704 11.6013 8.50399 11.6018C8.45272 11.602 8.40142 11.6021 8.35007 11.6051C8.33509 11.6058 8.31985 11.6038 8.30172 11.6015L8.30171 11.6015C8.29216 11.6002 8.28179 11.5989 8.27024 11.5978C8.30665 11.5178 8.33372 11.4411 8.33372 11.3661C8.33372 11.2961 8.31006 11.2276 8.24823 11.1596C8.22748 11.1368 8.21906 11.118 8.21906 11.1023C8.21906 11.0628 8.27185 11.0423 8.31629 11.0251C8.31788 11.0245 8.31945 11.0238 8.32102 11.0232C8.43893 10.9772 8.56544 10.9757 8.68821 10.9742C8.71762 10.9738 8.74682 10.9735 8.77563 10.9725C9.06471 10.9626 9.35585 10.9629 9.64728 10.983C9.80958 10.9944 9.97892 11.0049 10.1462 10.9956C10.3652 10.9833 10.5822 11.0089 10.7991 11.0346C10.9991 11.0582 11.1989 11.0818 11.4 11.0757C11.6442 11.0681 11.8798 11.1007 12.1149 11.1439C12.2307 11.1649 12.2762 11.2264 12.2762 11.3255C12.2762 11.3498 12.2735 11.3762 12.2684 11.4049ZM79.9968 11.7804C79.6831 11.89 79.3679 11.9235 79.0524 11.7868C79.0269 11.7758 79.0034 11.7591 78.9802 11.7434C78.9494 11.7221 78.9297 11.6886 78.9464 11.656C78.9642 11.6218 78.9817 11.635 78.9997 11.6486C79.0094 11.6559 79.0192 11.6633 79.0292 11.6633C79.0408 11.6633 79.0501 11.6705 79.0593 11.6777C79.0728 11.6882 79.0862 11.6986 79.1064 11.6863C79.1105 11.684 79.1134 11.6799 79.1246 11.6697C79.0671 11.6047 78.984 11.5843 78.9112 11.5502C78.8866 11.5386 78.859 11.5354 78.8361 11.5144C78.7031 11.3915 78.7175 11.316 78.8725 11.2207C79.0979 11.082 79.2878 11.0975 79.5058 11.2624C79.6719 11.388 79.841 11.5109 80.0012 11.6449C80.0488 11.6851 80.1045 11.7428 79.9968 11.7804ZM6.8704 11.3428C6.85837 11.4121 6.86189 11.4821 6.8431 11.5534C6.79908 11.7195 6.72953 11.7702 6.54434 11.769C6.46855 11.7686 6.3927 11.7752 6.31685 11.7818C6.23583 11.7889 6.15482 11.7959 6.07388 11.7944C6.06122 11.7941 6.04849 11.794 6.03572 11.7938C5.93277 11.7925 5.82711 11.7911 5.7305 11.7411C5.65801 11.7035 5.59256 11.7108 5.5368 11.7755C5.53453 11.7781 5.53222 11.7808 5.52986 11.7836C5.49589 11.8233 5.45275 11.8737 5.40884 11.8617C5.27014 11.8241 5.14755 11.8688 5.02642 11.913C4.93943 11.9448 4.85319 11.9763 4.76229 11.9768C4.7032 11.9771 4.64401 11.9788 4.58481 11.9804C4.49288 11.983 4.40091 11.9855 4.30915 11.9832C4.20702 11.9806 4.10752 11.9969 4.02036 12.045C3.95256 12.0825 3.88946 12.075 3.8563 12.0251C3.84632 12.0102 3.84164 11.9949 3.84164 11.9795C3.84164 11.9449 3.86499 11.9093 3.90473 11.8736C4.08375 11.714 4.30827 11.6478 4.51606 11.5462C4.72296 11.4451 4.95922 11.4474 5.16437 11.3635C5.36746 11.2805 5.58229 11.2569 5.78656 11.1866C5.86153 11.161 5.94582 11.1622 6.03139 11.1635C6.0701 11.1641 6.10906 11.1646 6.14754 11.1627C6.25848 11.1821 6.36901 11.1691 6.48005 11.156C6.55583 11.1471 6.63185 11.1381 6.7084 11.1394C6.8367 11.1415 6.88066 11.1632 6.88066 11.2495C6.88066 11.2747 6.87691 11.3054 6.8704 11.3428ZM9.30374 11.6911C9.35708 11.5978 9.4625 11.6085 9.53485 11.6159C9.53892 11.6163 9.54289 11.6167 9.54675 11.6171C9.57746 11.62 9.60767 11.6281 9.63765 11.6361C9.71282 11.6561 9.78655 11.6757 9.86312 11.6144C9.98337 11.6826 10.1092 11.6702 10.2358 11.6578C10.3225 11.6492 10.4095 11.6407 10.4953 11.6578C10.6241 11.6834 10.7579 11.6856 10.8916 11.6878C10.9513 11.6888 11.011 11.6897 11.0702 11.6928C11.0934 11.694 11.1166 11.6978 11.1392 11.708C11.0692 11.7113 10.9996 11.7167 10.9301 11.7221C10.7538 11.7358 10.5777 11.7495 10.3961 11.7301C10.1839 11.7073 9.96866 11.712 9.75332 11.7166C9.64612 11.7189 9.5389 11.7213 9.43199 11.7202C9.42131 11.7201 9.40969 11.7223 9.39782 11.7245C9.36336 11.731 9.32682 11.7379 9.30521 11.6911L9.30315 11.6931L9.3011 11.6951L9.3011 11.6922C9.18402 11.7269 9.064 11.7248 8.94378 11.7227C8.82955 11.7206 8.71514 11.7186 8.6029 11.7482C8.57797 11.7547 8.55184 11.7466 8.52492 11.7383C8.48432 11.7257 8.44193 11.7126 8.39922 11.7482C8.38454 11.7604 8.36576 11.7394 8.36458 11.7167C8.36433 11.7124 8.36412 11.7082 8.36412 11.7041C8.36412 11.6845 8.36894 11.6682 8.39687 11.6645C8.41252 11.6626 8.42918 11.6593 8.44564 11.656C8.47332 11.6504 8.5004 11.645 8.52101 11.6465C8.59184 11.6512 8.66279 11.6465 8.73378 11.6417C8.8502 11.6339 8.96673 11.6262 9.08304 11.6602C9.13205 11.6745 9.19456 11.6782 9.2515 11.6447C9.29566 11.6186 9.30164 11.6484 9.30164 11.6793C9.30164 11.6836 9.30153 11.6878 9.30139 11.6919L9.30374 11.6911ZM11.187 11.7001C11.1947 11.6991 11.2021 11.6974 11.209 11.6959C11.2229 11.6927 11.235 11.6899 11.244 11.694C11.2614 11.702 11.2772 11.6911 11.2927 11.6804C11.3136 11.666 11.334 11.6519 11.357 11.6861C11.3577 11.6872 11.358 11.6888 11.358 11.6907C11.358 11.6994 11.351 11.7148 11.3441 11.7196C11.3024 11.7479 11.2584 11.7625 11.2146 11.722C11.2079 11.7158 11.2005 11.7106 11.187 11.7001ZM53.064 11.7736C52.963 11.6754 52.8435 11.6871 52.7149 11.6996C52.6803 11.703 52.6449 11.7064 52.6091 11.7078C52.7652 11.7914 52.917 11.7955 53.064 11.7736ZM9.00158 11.8075L9.0016 11.8074C9.12528 11.7966 9.24781 11.7858 9.36879 11.794C9.43148 11.7983 9.49434 11.7959 9.55757 11.7935L9.55758 11.7935C9.67992 11.7888 9.80359 11.7841 9.92993 11.8275C10.0294 11.8616 10.1378 11.8445 10.2482 11.827C10.3288 11.8143 10.4106 11.8014 10.4908 11.808C10.678 11.8238 10.8662 11.8302 11.054 11.8374C11.1065 11.8396 11.1504 11.8519 11.1504 11.9046C11.1504 11.9084 11.1501 11.9124 11.1497 11.9167C11.1439 11.968 11.1082 11.962 11.0755 11.9566C11.0645 11.9547 11.0539 11.953 11.0449 11.9534C10.6126 11.9755 10.1803 11.9663 9.74804 11.9571L9.74802 11.9571C9.4915 11.9517 9.23498 11.9462 8.97845 11.9473C8.9232 11.9475 8.86734 11.9525 8.81122 11.9574C8.67447 11.9695 8.53627 11.9818 8.40205 11.9266C8.37827 11.9167 8.35861 11.9082 8.34511 11.8849C8.41685 11.8047 8.52463 11.8132 8.60849 11.8199C8.62241 11.821 8.63566 11.822 8.64799 11.8226C8.76666 11.8281 8.88463 11.8177 9.00158 11.8075ZM54.0128 12.2528C53.8587 12.2085 53.7023 12.1712 53.5476 12.1287C53.4942 12.1138 53.4347 12.1042 53.4056 12.0261C53.478 11.9986 53.5371 12.0223 53.5951 12.0455C53.6263 12.058 53.6571 12.0703 53.6894 12.0745C53.8053 12.0896 53.9169 12.1354 54.0325 12.1558C54.0976 12.1674 54.1179 12.2225 54.1085 12.2528C54.0972 12.289 54.0689 12.2764 54.0403 12.2636C54.0309 12.2594 54.0216 12.2553 54.0128 12.2528ZM49.5767 12.9752C49.8361 12.9784 50.0245 13.1095 50.1666 13.3196C50.1939 13.3597 50.1802 13.3902 50.1665 13.4206C50.1598 13.4356 50.1531 13.4506 50.1513 13.4667C50.1459 13.5178 50.1514 13.5683 50.1571 13.6192C50.1653 13.6941 50.1737 13.7697 50.1469 13.849C50.1234 13.9186 50.1055 13.9804 50.0474 14.0191C49.9576 14.0791 49.8822 14.1371 49.8863 14.2624C49.889 14.3419 49.6412 14.515 49.5347 14.5173C49.1285 14.5267 48.7232 14.5068 48.3197 14.4591C48.1269 14.4363 48.0993 14.4559 48.0993 14.6505L48.0993 14.8107C48.0679 15.0732 48.0688 15.3364 48.0697 15.5998C48.07 15.6791 48.0702 15.7584 48.0696 15.8377C48.0687 15.9677 47.9593 16.0528 47.9235 16.1693C47.8759 16.3249 47.8243 16.4764 47.6409 16.5332C47.3864 16.6122 47.1363 16.648 46.8822 16.5309C46.8505 16.516 46.8402 16.4994 46.8279 16.4761C46.6993 16.2325 46.6497 15.9767 46.7099 15.7052C46.7349 15.5927 46.7354 15.4759 46.7413 15.3646C46.7513 15.1723 46.7786 14.9812 46.7801 14.7883C46.7809 14.6779 46.7328 14.6382 46.6227 14.6321C46.3014 14.6146 45.9912 14.6796 45.695 14.7845C45.4344 14.8766 45.0458 14.6015 44.9836 14.3821C44.8715 13.9865 44.9968 13.6622 45.2337 13.3601C45.285 13.2945 45.3387 13.2307 45.4033 13.1719C45.5418 13.0457 45.6927 13.0142 45.867 13.0323C45.9897 13.0448 46.1144 13.0163 46.2119 12.9598C46.4358 12.8295 46.6923 12.7937 46.923 12.6862C47.0351 12.634 47.1407 12.574 47.2382 12.5012C47.3318 12.4315 47.4228 12.3907 47.5461 12.4164C47.5929 12.4261 47.6401 12.4155 47.6882 12.4046C47.7306 12.395 47.7738 12.3852 47.8181 12.389C47.9094 12.3972 47.9839 12.4103 48.0265 12.5058C48.0776 12.6203 48.1486 12.7249 48.1888 12.8453C48.217 12.93 48.266 12.979 48.3737 12.9769C48.7746 12.9694 49.1758 12.9702 49.5767 12.9752ZM56.2527 12.5192C56.2645 12.502 56.2645 12.4848 56.2763 12.4667C56.2172 12.4848 56.2054 12.502 56.2527 12.5192ZM37.3395 13.3215C37.3416 13.3075 37.3436 13.2932 37.3457 13.2792C37.3827 13.2773 37.4199 13.2745 37.457 13.2717C37.6573 13.2565 37.8577 13.2414 38.0468 13.3582C38.0653 13.3695 38.0853 13.3937 38.0864 13.4129C38.088 13.4366 38.0721 13.4369 38.0559 13.4372C38.0473 13.4374 38.0386 13.4376 38.0324 13.4412C37.9599 13.4838 37.8953 13.4594 37.831 13.4352C37.8041 13.4251 37.7774 13.415 37.7501 13.4097C37.6128 13.3835 37.4763 13.3512 37.3395 13.3215ZM11.6864 13.621C11.5889 13.7468 11.4841 13.7873 11.3072 13.7445C11.1061 13.6959 10.8931 13.7044 10.6823 13.7128C10.643 13.7144 10.6037 13.7159 10.5647 13.7171C10.4003 13.7221 10.2415 13.7186 10.0736 13.6912C9.82859 13.6516 9.56445 13.6731 9.31 13.7122C9.11513 13.7419 8.92025 13.7495 8.72391 13.7069C8.61972 13.6845 8.50996 13.7063 8.40577 13.7288C8.32917 13.7451 8.25404 13.7247 8.19945 13.6903C8.13858 13.6519 8.06682 13.604 8.06682 13.5158C8.06682 13.5057 8.06775 13.4952 8.06973 13.484C8.08822 13.38 8.15484 13.3567 8.25081 13.343C8.42336 13.3183 8.59572 13.3267 8.76805 13.3351C8.80734 13.337 8.84663 13.3389 8.88591 13.3404C8.97106 13.3404 9.05627 13.3414 9.14147 13.3424C9.33263 13.3447 9.52381 13.347 9.71442 13.3378C10.0385 13.322 10.362 13.3364 10.6849 13.3508L10.685 13.3508C10.7559 13.3539 10.8269 13.3571 10.8978 13.3599C11.1249 13.3689 11.3524 13.3783 11.5798 13.3821C11.6412 13.3832 11.6993 13.4019 11.7286 13.4526C11.7382 13.4693 11.7422 13.4857 11.7422 13.5019C11.7422 13.545 11.7137 13.5856 11.6864 13.621ZM6.40973 13.7889C6.30789 13.8442 6.1949 13.8725 6.08338 13.8742C5.86091 13.8771 5.64814 13.9287 5.43507 13.9794C5.38605 13.9911 5.33939 13.9943 5.29214 13.9931C5.04901 13.9865 4.80703 14.0056 4.56498 14.0247C4.31881 14.0442 4.07258 14.0637 3.825 14.056C3.79055 14.055 3.75595 14.0601 3.71948 14.0654C3.6531 14.0751 3.58051 14.0857 3.49131 14.0622C3.69558 13.9369 3.89397 13.8801 4.08855 13.8221C4.58895 13.6729 5.1049 13.624 5.62407 13.5771C5.71133 13.5692 5.79966 13.5706 5.88806 13.5721C6.06458 13.5749 6.24136 13.5778 6.41032 13.5065C6.4203 13.5022 6.43908 13.5042 6.44701 13.5109C6.45885 13.5206 6.46389 13.5491 6.46389 13.5844C6.46389 13.6621 6.43958 13.7727 6.40973 13.7889ZM11.299 14.0608C11.1613 14.0323 11.007 14.0256 10.8652 14.071C10.7961 14.0933 10.7315 14.0795 10.6669 14.0658C10.6239 14.0567 10.5809 14.0475 10.5365 14.0489C10.2747 14.057 10.0139 14.0373 9.7529 14.0176L9.75286 14.0176C9.54496 14.0019 9.33692 13.9862 9.12807 13.9845C8.99336 13.9833 8.84544 13.9778 8.70604 13.9225C8.67652 13.9108 8.64139 13.9147 8.60404 13.9189C8.55858 13.924 8.50983 13.9295 8.46391 13.9076C8.40786 13.8811 8.35092 13.8627 8.30778 13.7931C8.37008 13.7866 8.43092 13.7875 8.49052 13.7884L8.49054 13.7884C8.59153 13.7899 8.68895 13.7913 8.78381 13.7567C8.80025 13.7508 8.83634 13.7541 8.83899 13.7619C8.89252 13.9076 9.00251 13.8988 9.10978 13.8903C9.15951 13.8863 9.20866 13.8824 9.25133 13.8939C9.37053 13.9261 9.49625 13.9224 9.62366 13.9185C9.72086 13.9156 9.81905 13.9127 9.91608 13.9257C9.97319 13.9334 10.0338 13.9247 10.0959 13.9157C10.1551 13.9072 10.2158 13.8984 10.2762 13.9035C10.6313 13.9335 10.987 13.963 11.3433 13.9761C11.4316 13.9793 11.5079 14.0049 11.5925 14.0166C11.4956 14.0533 11.412 14.0844 11.299 14.0608ZM10.4307 13.8026C10.7767 13.7746 11.1213 13.7757 11.462 13.8579C11.1166 13.8699 10.7726 13.8541 10.4307 13.8026ZM73.267 14.8724C73.2274 14.8885 73.2133 14.9211 73.2195 14.9747C73.2609 14.9584 73.2961 14.9438 73.2964 14.9004C73.2964 14.8905 73.2726 14.8701 73.267 14.8724ZM50.0021 15.3785C49.8243 15.2459 49.662 15.0976 49.5082 14.9391C49.4571 14.8867 49.3776 14.8625 49.3506 14.9298C49.3129 15.0244 49.267 15.0141 49.2058 15.0003C49.1931 14.9974 49.1797 14.9944 49.1657 14.9921C49.1586 14.991 49.1514 14.9898 49.1441 14.9886C49.0311 14.9701 48.8931 14.9474 48.8255 15.0484C48.751 15.1597 48.6712 15.2989 48.7607 15.4513C48.7909 15.5026 48.785 15.555 48.7337 15.592C48.6621 15.6436 48.6447 15.7132 48.6606 15.7986C48.6283 15.9137 48.6967 15.9801 48.7824 16.0468C48.8704 16.1156 48.979 16.1354 49.0703 16.1852C49.2829 16.301 49.4617 16.2141 49.6353 16.1297C49.6475 16.1238 49.6596 16.1179 49.6717 16.1121C49.8979 16.0034 49.9546 15.7596 50.0555 15.5559C50.0869 15.4921 50.0491 15.4134 50.0021 15.3785ZM46.0598 15.1819C46.0143 15.1519 45.975 15.1129 45.9518 15.0525C45.9154 14.9581 45.852 14.9083 45.7294 14.9491C45.6687 14.9692 45.6089 14.9933 45.5491 15.0174C45.3712 15.089 45.1928 15.1608 44.9895 15.1292C44.9455 15.1225 44.91 15.1429 44.9012 15.1863C44.8695 15.343 44.8407 15.5004 44.8116 15.6577C44.8031 15.7043 44.8372 15.7366 44.8686 15.7506C44.9434 15.7844 44.9375 15.8243 44.9012 15.8832C44.8742 15.9266 44.8378 15.9852 44.9056 16.0195C45.0359 16.0857 45.1618 16.1579 45.2765 16.248C45.2958 16.263 45.3151 16.2639 45.3416 16.2652C45.3526 16.2657 45.3649 16.2663 45.3789 16.2681C45.4206 16.2576 45.4793 16.2401 45.5418 16.2331C45.7264 16.2124 45.911 16.1842 46.0114 15.993C46.0766 15.8692 46.1631 15.755 46.2166 15.6265C46.3128 15.394 46.2805 15.3279 46.0598 15.1819ZM65.3192 15.1401C65.2687 15.1101 65.2106 15.0926 65.1357 15.0617C65.1955 15.0333 65.2383 15.0477 65.2778 15.061C65.3001 15.0685 65.3214 15.0757 65.3441 15.0746C65.3705 15.0731 65.3908 15.0944 65.3737 15.1226L65.3726 15.1246C65.3629 15.1405 65.3516 15.1591 65.3192 15.1401ZM66.0475 15.2652C65.9747 15.2792 65.916 15.251 65.8485 15.1988C65.8597 15.1963 65.8683 15.1937 65.8751 15.1916C65.8854 15.1885 65.8912 15.1868 65.8945 15.1889C65.9442 15.2206 66.0125 15.1965 66.0563 15.2425C66.0589 15.2451 66.0522 15.2644 66.0475 15.2652ZM66.9049 15.5623C66.8785 15.5597 66.8503 15.5355 66.8553 15.5037C66.8597 15.4761 66.882 15.4478 66.9125 15.4525C66.9407 15.4571 66.9656 15.4784 66.9944 15.4935C66.9858 15.5017 66.9784 15.5112 66.9711 15.5205C66.9531 15.5436 66.9361 15.5654 66.9049 15.5623ZM8.5825 15.6587C8.64824 15.9136 8.87628 16.004 9.04944 16.1514C9.14541 16.233 9.2446 16.3131 9.32825 16.4069C9.44887 16.5406 9.44241 16.6729 9.34556 16.8212C9.16918 17.0913 8.96697 17.3389 8.72337 17.5516C8.62329 17.6393 8.51764 17.7215 8.41081 17.8013C8.12642 18.014 7.62221 17.7844 7.55647 17.4345C7.54764 17.3874 7.53551 17.3409 7.52338 17.2944C7.4936 17.1803 7.46383 17.0662 7.48281 16.9439C7.49983 16.6805 7.48281 16.3885 7.69236 16.1989C7.85348 16.0529 7.97498 15.8402 8.22269 15.7948C8.29753 15.7811 8.36121 15.7257 8.40729 15.6552C8.46599 15.5655 8.55785 15.5634 8.5825 15.6587ZM67.4669 15.6518C67.4674 15.6754 67.4513 15.6868 67.4325 15.6801C67.417 15.6745 67.3976 15.6591 67.3941 15.6445C67.3894 15.625 67.4008 15.6256 67.4122 15.6262C67.4181 15.6265 67.4239 15.6268 67.4275 15.6244C67.4469 15.6259 67.4663 15.627 67.4669 15.6518ZM67.1813 15.6836C67.1344 15.6871 67.1197 15.7197 67.0924 15.7748C67.1005 15.7708 67.1084 15.7673 67.1158 15.764C67.1604 15.7439 67.1896 15.7308 67.1813 15.6836ZM5.9272 15.8786C5.93073 15.7568 5.99881 15.7795 6.05604 15.8279C6.21012 15.9587 6.34777 16.1148 6.41087 16.3022C6.459 16.4458 6.38299 16.5918 6.28232 16.7176C6.05604 17 5.72529 17.1194 5.42417 17.2887C5.24045 17.3921 5.04381 17.4236 4.83045 17.4682C4.73037 17.4041 4.61092 17.3942 4.48443 17.3901C4.43688 17.3886 4.4134 17.2741 4.44363 17.201C4.51759 17.0212 4.62501 16.8668 4.74857 16.713C5.04029 16.3488 5.44266 16.1638 5.84591 15.9721C5.88465 15.9537 5.92574 15.9263 5.9272 15.8786ZM68.43 15.8511C68.3833 15.7969 68.3214 15.8007 68.2636 15.7905C68.3003 15.8458 68.3507 15.8657 68.43 15.8511ZM68.0893 15.821C68.096 15.8262 68.1045 15.8425 68.1025 15.845C68.0837 15.8701 68.0629 15.8647 68.0418 15.8591C68.0293 15.8558 68.0167 15.8525 68.0044 15.8556C68.0121 15.8506 68.019 15.8434 68.0258 15.8362C68.0434 15.8177 68.0607 15.7996 68.0893 15.821Z" fill="rgb(23,19,16)" fill-rule="evenodd" />
</svg>
